<svg width="16" height="13" viewBox="0 0 16 13" fill="none" xmlns="http://www.w3.org/2000/svg">
<path d="M15.3125 0.171875H0.6875C0.376367 0.171875 0.125 0.423242 0.125 0.734375V11.9844C0.125 12.2955 0.376367 12.5469 0.6875 12.5469H15.3125C15.6236 12.5469 15.875 12.2955 15.875 11.9844V0.734375C15.875 0.423242 15.6236 0.171875 15.3125 0.171875ZM14.6094 2.11953V11.2812H1.39062V2.11953L0.905469 1.7416L1.59629 0.853906L2.34863 1.43926H13.6531L14.4055 0.853906L15.0963 1.7416L14.6094 2.11953ZM13.6531 1.4375L8 5.83203L2.34687 1.4375L1.59453 0.852148L0.903711 1.73984L1.38887 2.11777L7.39355 6.78652C7.56624 6.92068 7.77869 6.99351 7.99736 6.99351C8.21604 6.99351 8.42849 6.92068 8.60117 6.78652L14.6094 2.11953L15.0945 1.7416L14.4037 0.853906L13.6531 1.4375Z" fill="#221C26"/>
</svg>
