<svg width="175" height="175" viewBox="0 0 175 175" fill="none" xmlns="http://www.w3.org/2000/svg">
<path opacity="0.1" d="M166.978 123.08C162.926 131.441 154.692 137.031 146.162 140.718C139.333 143.65 132.114 145.576 124.732 146.435C123.318 146.603 121.899 146.733 120.476 146.826C116.839 147.062 113.191 147.058 109.555 146.813C107.368 146.668 105.189 146.436 103.017 146.116C95.4706 145.016 88.1134 142.874 81.1558 139.752C79.1477 138.848 77.1804 137.861 75.2537 136.792C72.0357 135.009 68.9523 132.993 66.0283 130.76C65.3813 130.266 64.7425 129.761 64.1118 129.246L63.8524 129.034C63.3565 128.625 62.8652 128.207 62.3662 127.801C61.5369 127.107 60.6565 126.475 59.7326 125.913C59.67 125.876 59.6074 125.84 59.5434 125.804C59.3725 125.705 59.1985 125.612 59.0215 125.524C58.6569 125.34 58.2831 125.175 57.9015 125.03C56.1391 124.358 54.2516 124.114 52.3382 124.156C52.0208 124.156 51.7034 124.177 51.3845 124.198C50.939 124.229 50.4919 124.275 50.0464 124.332L49.8816 124.355C48.4618 124.556 47.058 124.857 45.6808 125.257C43.5538 125.867 41.4649 126.63 39.3622 127.318C38.4696 127.612 37.5754 127.893 36.6736 128.144L36.4753 128.199C35.1927 128.56 33.8871 128.833 32.5675 129.017C29.5688 129.4 26.5231 129.155 23.6244 128.297L23.5237 128.268L23.3375 128.213L23.0827 128.134C22.6555 127.999 22.2318 127.853 21.8117 127.693L21.5568 127.595C21.15 127.439 20.7517 127.27 20.3621 127.09L20.1073 126.974C19.7004 126.785 19.3021 126.585 18.9125 126.375C18.7721 126.302 18.6333 126.222 18.496 126.148C18.0809 125.916 17.674 125.673 17.2753 125.419C16.8521 125.149 16.4381 124.868 16.0332 124.575C15.846 124.441 15.6609 124.303 15.4778 124.162C14.4223 123.355 13.4338 122.463 12.5222 121.497C12.4718 121.446 12.4245 121.395 12.3772 121.344C12.1346 121.082 11.8966 120.815 11.6662 120.542C11.5807 120.441 11.4953 120.341 11.4113 120.237C11.1377 119.903 10.8737 119.562 10.6194 119.213C10.5813 119.163 10.5447 119.111 10.508 119.061C9.46546 117.619 8.60113 116.057 7.93389 114.408C7.91253 114.358 7.89269 114.306 7.87438 114.256C7.67093 113.732 7.48528 113.2 7.31744 112.659C7.24877 112.433 7.18316 112.201 7.12518 111.975C7.10534 111.908 7.08703 111.84 7.07025 111.773C6.22797 108.458 6.13184 105.012 6.13184 101.586C6.13184 101.187 6.13184 100.787 6.13184 100.389C6.15625 94.8471 6.2417 89.2109 7.05956 83.7455C7.05956 83.7074 7.07025 83.6693 7.07635 83.6326C7.35008 81.7927 7.72242 79.9688 8.19176 78.1688C8.68297 76.2801 9.31073 74.4295 10.0701 72.6317C11.9515 68.2081 14.6874 64.1827 17.7254 60.4516C21.3875 55.9625 25.5836 51.8196 30.2574 48.4013C30.9287 47.9101 31.6093 47.4332 32.299 46.9705L32.6179 46.7615C32.7293 46.6867 32.8406 46.6089 32.952 46.5434C33.1809 46.3908 33.4098 46.2474 33.6417 46.1025L33.9011 45.9408L34.3955 45.6358L34.5481 45.5488L34.8121 45.3963L35.073 45.2437C35.3782 45.0637 35.6869 44.8878 35.9992 44.716C37.3328 43.9726 38.698 43.2933 40.0946 42.6781C40.5066 42.4961 40.9211 42.3206 41.3382 42.1518C43.2317 41.3809 45.1769 40.7433 47.1594 40.2436C47.8918 40.0585 48.6288 39.8958 49.3704 39.7555C50.2452 39.5867 51.1246 39.4468 52.0086 39.336C53.4153 39.1591 54.8301 39.0537 56.2475 39.0202C66.2145 38.7777 76.2821 42.0206 84.0931 48.2365C87.2058 50.7137 90.0028 53.647 93.4985 55.5461C96.5503 57.1996 100.122 57.8845 103.391 56.5833C106.092 55.5079 107.849 54.9741 110.883 55.1373C117.16 55.4907 123.348 56.7844 129.24 58.9751C129.479 59.062 129.717 59.152 129.953 59.242C145.32 65.1223 158.533 76.799 165.396 91.804C165.577 92.2006 165.754 92.6003 165.925 93.003C170.019 102.559 171.496 113.763 166.978 123.08Z" fill="#B338FF"/>
<path opacity="0.1" d="M36.6685 70.3115V128.147L36.4701 128.202C35.1875 128.563 33.882 128.836 32.5624 129.02C29.5637 129.403 26.518 129.158 23.6193 128.3L23.5185 128.271L23.3324 128.216L23.0776 128.137C22.6503 128.002 22.2266 127.855 21.8065 127.696L21.5517 127.598C21.1448 127.442 20.7466 127.273 20.3569 127.093L20.1021 126.977C19.6952 126.788 19.297 126.588 18.9074 126.378C18.767 126.305 18.6281 126.225 18.4908 126.151C18.0758 125.919 17.6689 125.676 17.2701 125.422C16.8469 125.152 16.4329 124.871 16.0281 124.578C15.8409 124.444 15.6557 124.306 15.4726 124.165C14.4171 123.358 13.4287 122.466 12.517 121.5C12.4667 121.449 12.4194 121.398 12.3721 121.347C12.1295 121.085 11.8914 120.818 11.661 120.545C11.5756 120.444 11.4901 120.344 11.4062 120.24C11.1326 119.906 10.8686 119.565 10.6143 119.216C10.5761 119.166 10.5395 119.114 10.5029 119.064C9.46033 117.622 8.596 116.06 7.92876 114.411C7.9074 114.361 7.88756 114.309 7.86925 114.259C7.6658 113.735 7.48015 113.203 7.31231 112.662C7.24364 112.436 7.17803 112.204 7.12005 111.978C7.10021 111.911 7.0819 111.843 7.06512 111.776C6.22284 108.461 6.12671 105.015 6.12671 101.589C6.12671 101.19 6.12671 100.79 6.12671 100.392C6.15112 94.8501 6.23657 89.2139 7.05444 83.7485C7.05444 83.7104 7.06512 83.6722 7.07122 83.6356C7.34496 81.7957 7.71729 79.9718 8.18663 78.1718H23.7688V70.3115H26.8755V63.998H33.5618V70.3115H36.6685Z" fill="#B338FF"/>
<path opacity="0.1" d="M166.977 123.08C162.924 131.441 154.691 137.031 146.161 140.718C139.332 143.651 132.113 145.576 124.73 146.435C123.316 146.603 121.898 146.733 120.475 146.826C116.838 147.063 113.19 147.059 109.554 146.814C107.367 146.668 105.188 146.436 103.016 146.117C95.4694 145.016 88.1123 142.874 81.1546 139.753C79.1466 138.849 77.1792 137.862 75.2526 136.792C72.0346 135.009 68.9512 132.993 66.0272 130.761C65.3802 130.266 64.7414 129.762 64.1107 129.246L63.8513 129.034C63.3554 128.625 62.864 128.207 62.3651 127.801C61.5357 127.107 60.6554 126.476 59.7314 125.913C59.6689 125.876 59.6063 125.84 59.5422 125.805C59.3713 125.706 59.1974 125.613 59.0204 125.524C58.6557 125.34 58.2819 125.175 57.9004 125.03V101.37H86.219V106.637H98.6472V68.1092H113.276V83.5155H120.511V74.3938H126.49V64.6497H129.236V58.9753C129.474 59.0623 129.712 59.1523 129.949 59.2423V64.6497H132.622V74.3999H138.596V83.5216H147.405V118.274H161.406V93.0002H165.918C170.018 102.56 171.495 113.764 166.977 123.08Z" fill="#B338FF"/>
<path opacity="0.1" d="M109.558 73.9067H103.019V80.4429H109.558V73.9067Z" fill="#B338FF"/>
<path opacity="0.1" d="M109.558 87.4556H103.019V93.9918H109.558V87.4556Z" fill="#B338FF"/>
<path opacity="0.1" d="M109.558 101.006H103.019V107.542H109.558V101.006Z" fill="#B338FF"/>
<path opacity="0.1" d="M109.558 114.555H103.019V121.091H109.558V114.555Z" fill="#B338FF"/>
<path opacity="0.1" d="M109.558 128.104H103.019V134.64H109.558V128.104Z" fill="#B338FF"/>
<path opacity="0.1" d="M109.558 141.651V146.813C107.371 146.667 105.191 146.435 103.019 146.116V141.651H109.558Z" fill="#B338FF"/>
<path opacity="0.1" d="M82.9436 109.818H60.0571V112.778H82.9436V109.818Z" fill="#B338FF"/>
<path opacity="0.1" d="M82.9436 118.81H60.0571V121.771H82.9436V118.81Z" fill="#B338FF"/>
<path opacity="0.1" d="M82.9425 127.801V130.761H66.0298C65.3828 130.266 64.744 129.761 64.1133 129.246L63.8539 129.034C63.358 128.625 62.8666 128.207 62.3677 127.801H82.9425Z" fill="#B338FF"/>
<path opacity="0.1" d="M82.9442 136.792V139.753H81.1589C79.1509 138.849 77.1835 137.862 75.2568 136.792H82.9442Z" fill="#B338FF"/>
<path opacity="0.1" d="M124.734 91.6068H120.478V95.861H124.734V91.6068Z" fill="#B338FF"/>
<path opacity="0.1" d="M32.5718 71.779H28.3162V76.0332H32.5718V71.779Z" fill="#B338FF"/>
<path opacity="0.1" d="M32.5718 81.6638H28.3162V85.918H32.5718V81.6638Z" fill="#B338FF"/>
<path opacity="0.1" d="M32.5718 91.547H28.3162V95.8012H32.5718V91.547Z" fill="#B338FF"/>
<path opacity="0.1" d="M32.5718 101.432H28.3162V105.686H32.5718V101.432Z" fill="#B338FF"/>
<path opacity="0.1" d="M32.5718 111.317H28.3162V115.571H32.5718V111.317Z" fill="#B338FF"/>
<path opacity="0.1" d="M32.5718 121.198H28.3162V125.452H32.5718V121.198Z" fill="#B338FF"/>
<path opacity="0.1" d="M140.983 91.6068H136.727V95.861H140.983V91.6068Z" fill="#B338FF"/>
<path opacity="0.1" d="M124.734 102.102H120.478V106.356H124.734V102.102Z" fill="#B338FF"/>
<path opacity="0.1" d="M140.983 102.102H136.727V106.356H140.983V102.102Z" fill="#B338FF"/>
<path opacity="0.1" d="M124.734 112.596H120.478V116.851H124.734V112.596Z" fill="#B338FF"/>
<path opacity="0.1" d="M140.983 112.596H136.727V116.851H140.983V112.596Z" fill="#B338FF"/>
<path opacity="0.1" d="M124.734 123.093H120.478V127.347H124.734V123.093Z" fill="#B338FF"/>
<path opacity="0.1" d="M140.983 123.093H136.727V127.347H140.983V123.093Z" fill="#B338FF"/>
<path opacity="0.1" d="M124.734 133.588H120.478V137.842H124.734V133.588Z" fill="#B338FF"/>
<path opacity="0.1" d="M140.983 133.588H136.727V137.842H140.983V133.588Z" fill="#B338FF"/>
<path opacity="0.1" d="M120.478 146.827V144.083H124.734V146.436L120.478 146.827Z" fill="#B338FF"/>
<path opacity="0.1" d="M7.0564 83.6377V86.0783H23.3328V83.6377H7.0564ZM8.50597 85.9257H7.31122V83.7902H8.50597V85.9257ZM9.95555 85.9257H8.76079V83.7902H9.95555V85.9257ZM11.4051 85.9257H10.2104V83.7902H11.4051V85.9257ZM12.8547 85.9257H11.6599V83.7902H12.8547V85.9257ZM14.3043 85.9257H13.1095V83.7902H14.3043V85.9257ZM15.7539 85.9257H14.5591V83.7902H15.7539V85.9257ZM17.2034 85.9257H16.0087V83.7902H17.2034V85.9257ZM18.653 85.9257H17.4582V83.7902H18.653V85.9257ZM20.1026 85.9257H18.9078V83.7902H20.1026V85.9257ZM21.5522 85.9257H20.3574V83.7902H21.5522V85.9257ZM23.078 85.9257H21.807V83.7902H23.078V85.9257Z" fill="#B338FF"/>
<path opacity="0.1" d="M7.0564 90.725V93.1579H23.3328V90.725H7.0564ZM8.50597 93.0054H7.31122V90.8775H8.50597V93.0054ZM9.95555 93.0054H8.76079V90.8775H9.95555V93.0054ZM11.4051 93.0054H10.2104V90.8775H11.4051V93.0054ZM12.8547 93.0054H11.6599V90.8775H12.8547V93.0054ZM14.3043 93.0054H13.1095V90.8775H14.3043V93.0054ZM15.7539 93.0054H14.5591V90.8775H15.7539V93.0054ZM17.2034 93.0054H16.0087V90.8775H17.2034V93.0054ZM18.653 93.0054H17.4582V90.8775H18.653V93.0054ZM20.1026 93.0054H18.9078V90.8775H20.1026V93.0054ZM21.5522 93.0054H20.3574V90.8775H21.5522V93.0054ZM23.078 93.0054H21.807V90.8775H23.078V93.0054Z" fill="#B338FF"/>
<path opacity="0.1" d="M7.0564 97.8104V100.243H23.3328V97.8104H7.0564ZM8.50597 100.091H7.31122V97.963H8.50597V100.091ZM9.95555 100.091H8.76079V97.963H9.95555V100.091ZM11.4051 100.091H10.2104V97.963H11.4051V100.091ZM12.8547 100.091H11.6599V97.963H12.8547V100.091ZM14.3043 100.091H13.1095V97.963H14.3043V100.091ZM15.7539 100.091H14.5591V97.963H15.7539V100.091ZM17.2034 100.091H16.0087V97.963H17.2034V100.091ZM18.653 100.091H17.4582V97.963H18.653V100.091ZM20.1026 100.091H18.9078V97.963H20.1026V100.091ZM21.5522 100.091H20.3574V97.963H21.5522V100.091ZM23.078 100.091H21.807V97.963H23.078V100.091Z" fill="#B338FF"/>
<path opacity="0.1" d="M7.0564 104.889V107.33H23.3328V104.889H7.0564ZM8.50597 107.177H7.31122V105.042H8.50597V107.177ZM9.95555 107.177H8.76079V105.042H9.95555V107.177ZM11.4051 107.177H10.2104V105.042H11.4051V107.177ZM12.8547 107.177H11.6599V105.042H12.8547V107.177ZM14.3043 107.177H13.1095V105.042H14.3043V107.177ZM15.7539 107.177H14.5591V105.042H15.7539V107.177ZM17.2034 107.177H16.0087V105.042H17.2034V107.177ZM18.653 107.177H17.4582V105.042H18.653V107.177ZM20.1026 107.177H18.9078V105.042H20.1026V107.177ZM21.5522 107.177H20.3574V105.042H21.5522V107.177ZM23.078 107.177H21.807V105.042H23.078V107.177Z" fill="#B338FF"/>
<path opacity="0.1" d="M7.11792 111.981C7.1759 112.21 7.24152 112.439 7.31018 112.665V112.134H8.50494V114.269H7.86712C7.88543 114.32 7.90527 114.372 7.92663 114.422H23.3379V111.981H7.11792ZM9.95451 114.269H8.75975V112.134H9.95451V114.269ZM11.4041 114.269H10.2093V112.134H11.4041V114.269ZM12.8537 114.269H11.6589V112.134H12.8537V114.269ZM14.3032 114.269H13.1085V112.134H14.3032V114.269ZM15.7528 114.269H14.5581V112.134H15.7528V114.269ZM17.2024 114.269H16.0076V112.134H17.2024V114.269ZM18.652 114.269H17.4572V112.134H18.652V114.269ZM20.1015 114.269H18.9068V112.134H20.1015V114.269ZM21.5511 114.269H20.3564V112.134H21.5511V114.269ZM23.077 114.269H21.8059V112.134H23.077V114.269Z" fill="#B338FF"/>
<path opacity="0.1" d="M10.5017 119.067C10.5383 119.117 10.575 119.169 10.6131 119.219H11.405V120.243C11.4889 120.345 11.5744 120.446 11.6598 120.548V119.221H12.8546V121.356H12.3709C12.4182 121.407 12.4655 121.458 12.5159 121.509H23.3327V119.068L10.5017 119.067ZM14.3042 121.355H13.1094V119.219H14.3042V121.355ZM15.7537 121.355H14.559V119.219H15.7537V121.355ZM17.2033 121.355H16.0086V119.219H17.2033V121.355ZM18.6529 121.355H17.4581V119.219H18.6529V121.355ZM20.1025 121.355H18.9077V119.219H20.1025V121.355ZM21.552 121.355H20.3573V119.219H21.552V121.355ZM23.0779 121.355H21.8069V119.219H23.0779V121.355Z" fill="#B338FF"/>
<path opacity="0.1" d="M18.4912 126.152C18.6285 126.23 18.7674 126.305 18.9078 126.379V126.305H20.1025V126.979L20.3574 127.095V126.305H21.5521V127.6L21.8069 127.697V126.305H23.078V128.135L23.3328 128.214V126.152H18.4912Z" fill="#B338FF"/>
<path opacity="0.1" d="M68.6789 62.5092C68.6789 62.5092 65.0412 62.2896 65.4746 64.8369C65.4524 64.9664 65.4717 65.0996 65.5298 65.2174C65.5879 65.3352 65.6818 65.4316 65.7981 65.4928C65.7981 65.4928 65.7981 65.3037 66.1704 65.3677C66.3009 65.3892 66.4336 65.3953 66.5656 65.386C66.7441 65.3743 66.9139 65.3047 67.0493 65.1878C67.0493 65.1878 68.0716 64.7652 68.4699 63.0949C68.4699 63.0949 68.7628 62.7304 68.7521 62.6373L68.1418 62.8997C68.1418 62.8997 68.3524 63.3421 68.1876 63.7097C68.1876 63.7097 68.1677 62.9165 68.0487 62.9348C68.0258 62.9348 67.7298 63.0873 67.7298 63.0873C67.7298 63.0873 68.0914 63.8592 67.8183 64.419C67.8183 64.419 67.9221 63.4702 67.6184 63.1438L67.1759 63.3985C67.1759 63.3985 67.5986 64.1947 67.3117 64.8445C67.3117 64.8445 67.3865 63.8485 67.0859 63.461L66.6937 63.7661C66.6937 63.7661 67.0905 64.5501 66.8463 65.0901C66.8463 65.0901 66.8143 63.9293 66.6068 63.8408C66.4579 63.9663 66.3251 64.1098 66.2116 64.268C66.2116 64.268 66.4832 64.8369 66.3153 65.1374C66.3153 65.1374 66.2116 64.3656 66.1261 64.361C66.1261 64.361 65.7859 64.8735 65.7508 65.2244C65.7664 64.8989 65.8675 64.5832 66.0437 64.3091C65.8472 64.3463 65.6658 64.4402 65.5219 64.5791C65.5219 64.5791 65.5753 64.2176 66.1322 64.1856C66.1322 64.1856 66.4145 63.7981 66.4908 63.7737C66.4908 63.7737 65.94 63.728 65.6058 63.8759C65.6058 63.8759 65.9003 63.5343 66.5915 63.6898L66.9776 63.3741C66.9776 63.3741 66.2528 63.2749 65.9461 63.3848C65.9461 63.3848 66.2985 63.0797 67.0813 63.3024L67.5025 63.0507C67.1789 62.9799 66.8476 62.9512 66.5167 62.9653C66.5167 62.9653 66.9043 62.7563 67.6261 62.9836L67.9312 62.8478C67.9312 62.8478 67.4735 62.7594 67.3468 62.7456C67.2202 62.7319 67.2064 62.6953 67.2064 62.6953C67.493 62.6475 67.7873 62.6803 68.0563 62.7899C68.0563 62.7899 68.6896 62.5489 68.6789 62.5092Z" fill="#B338FF"/>
<path opacity="0.1" d="M59.1313 74.9062C59.1313 74.9062 57.8877 78.3292 60.4542 78.6419C60.5717 78.6997 60.7045 78.7188 60.8336 78.6966C60.9627 78.6745 61.0814 78.612 61.1729 78.5183C61.1729 78.5183 60.9944 78.4588 61.1592 78.1248C61.2169 78.0061 61.2609 77.8812 61.2904 77.7526C61.329 77.5778 61.3097 77.3953 61.2355 77.2324C61.2355 77.2324 61.121 76.1326 59.6318 75.2769C59.6318 75.2769 59.3663 74.891 59.2732 74.8757L59.3495 75.5393C59.3495 75.5393 59.8332 75.463 60.1399 75.7254C60.1399 75.7254 59.377 75.5194 59.3571 75.6384C59.3571 75.6613 59.4136 75.9877 59.4136 75.9877C59.4136 75.9877 60.2559 75.8596 60.7151 76.2806C60.7151 76.2806 59.8332 75.9115 59.4349 76.1113L59.554 76.5963C59.554 76.5963 60.4374 76.4194 60.9791 76.877C60.9791 76.877 60.0453 76.5247 59.5875 76.7016L59.7691 77.1592C59.7691 77.1592 60.6343 77.0067 61.0829 77.3865C61.0829 77.3865 59.9598 77.0814 59.8179 77.2614C59.8961 77.439 59.9955 77.6065 60.1139 77.7602C60.1139 77.7602 60.738 77.6626 60.9776 77.9127C60.9776 77.9127 60.207 77.7922 60.1796 77.8716C60.1796 77.8716 60.5748 78.3444 60.9013 78.4817C60.5947 78.3732 60.3217 78.1866 60.1094 77.9402C60.0891 78.1396 60.1279 78.3406 60.2208 78.5183C60.2208 78.5183 59.8881 78.3658 60.0148 77.8243C60.0148 77.8243 59.7218 77.4445 59.7218 77.3667C59.7218 77.3667 59.5204 77.8807 59.5692 78.2437C59.5692 78.2437 59.3251 77.8639 59.6699 77.2462L59.4777 76.7885C59.4777 76.7885 59.1725 77.4551 59.1938 77.7816C59.1938 77.7816 59.0046 77.356 59.438 76.668L59.3174 76.1937C59.1578 76.4818 59.0362 76.7894 58.9558 77.1089C58.9558 77.1089 58.8643 76.6772 59.2869 76.0503L59.2427 75.7238C59.2427 75.7238 59.0291 76.1326 58.9787 76.2562C58.9283 76.3797 58.8902 76.3752 58.8902 76.3752C58.9253 76.0867 59.04 75.8137 59.2213 75.5866C59.2213 75.5866 59.1725 74.9062 59.1313 74.9062Z" fill="#B338FF"/>
<path opacity="0.1" d="M83.2445 72.0214C83.2445 72.0214 82.0024 75.4504 84.5674 75.7554C84.6853 75.8132 84.8185 75.8322 84.9478 75.8097C85.0772 75.7872 85.1961 75.7245 85.2876 75.6304C85.2876 75.6304 85.1076 75.5709 85.2739 75.2383C85.3321 75.1195 85.3757 74.994 85.4036 74.8646C85.4427 74.69 85.4239 74.5075 85.3502 74.3445C85.3502 74.3445 85.2358 73.2447 83.7465 72.389C83.7465 72.389 83.4795 72.0046 83.3864 71.9893L83.4642 72.6513C83.4642 72.6513 83.9479 72.5766 84.2546 72.8389C84.2546 72.8389 83.4917 72.633 83.4703 72.7505C83.4703 72.7749 83.5268 73.0998 83.5268 73.0998C83.5268 73.0998 84.3691 72.9732 84.8299 73.3927C84.8299 73.3927 83.9479 73.025 83.5481 73.2233L83.6687 73.7099C83.6687 73.7099 84.5522 73.5315 85.0938 73.9906C85.0938 73.9906 84.1585 73.6367 83.7007 73.8137L83.8823 74.2713C83.8823 74.2713 84.7475 74.1187 85.1961 74.4985C85.1961 74.4985 84.0746 74.1935 83.9311 74.375C84.0117 74.5533 84.1142 74.7208 84.2363 74.8738C84.2363 74.8738 84.8589 74.7746 85.1 75.0263C85.1 75.0263 84.3294 74.9058 84.3019 74.9867C84.3019 74.9867 84.6956 75.458 85.0221 75.5968C84.7157 75.4888 84.4431 75.302 84.2317 75.0553C84.2115 75.2546 84.2497 75.4554 84.3416 75.6334C84.3416 75.6334 84.0105 75.4809 84.1371 74.9409C84.1371 74.9409 83.8442 74.5596 83.8426 74.4833C83.8426 74.4833 83.6427 74.9989 83.69 75.3604C83.69 75.3604 83.4459 74.9821 83.7908 74.3628L83.5985 73.9052C83.5985 73.9052 83.2933 74.5718 83.3147 74.8967C83.3147 74.8967 83.1255 74.4726 83.5588 73.7847L83.4368 73.3088C83.2771 73.5969 83.1555 73.9045 83.0751 74.224C83.0751 74.224 82.9851 73.7923 83.4078 73.1654L83.3635 72.8389C83.3635 72.8389 83.1499 73.2477 83.098 73.3713C83.0461 73.4949 83.0095 73.4903 83.0095 73.4903C83.0456 73.2018 83.1608 72.9289 83.3422 72.7017C83.3422 72.7017 83.2872 72.0229 83.2445 72.0214Z" fill="#B338FF"/>
<path opacity="0.1" d="M48.7748 100.008C48.7748 100.008 47.5313 103.432 50.0978 103.745C50.2154 103.803 50.3483 103.822 50.4775 103.8C50.6066 103.777 50.7253 103.714 50.8165 103.62C50.8165 103.62 50.6379 103.561 50.8027 103.228C50.8614 103.109 50.9054 102.984 50.9339 102.854C50.9733 102.68 50.954 102.497 50.879 102.334C50.879 102.334 50.7646 101.234 49.2753 100.38C49.2753 100.38 49.0098 99.9943 48.9167 99.979L48.993 100.641C48.993 100.641 49.4783 100.566 49.7834 100.829C49.7834 100.829 49.0205 100.623 49.0007 100.74C49.0007 100.765 49.0571 101.089 49.0571 101.089C49.0571 101.089 49.8994 100.963 50.3587 101.382C50.3587 101.382 49.4767 101.015 49.0785 101.213L49.1975 101.7C49.1975 101.7 50.081 101.521 50.6227 101.98C50.6227 101.98 49.6888 101.626 49.2311 101.803L49.4127 102.261C49.4127 102.261 50.2778 102.108 50.7264 102.488C50.7264 102.488 49.6049 102.183 49.4615 102.365C49.5396 102.542 49.639 102.71 49.7575 102.863C49.7575 102.863 50.3816 102.764 50.6227 103.016C50.6227 103.016 49.8506 102.896 49.8231 102.976C49.8231 102.976 50.2183 103.448 50.5449 103.587C50.2382 103.479 49.9651 103.293 49.7529 103.047C49.7327 103.245 49.7715 103.446 49.8643 103.623C49.8643 103.623 49.5317 103.471 49.6583 102.931C49.6583 102.931 49.3669 102.549 49.3654 102.473C49.3654 102.473 49.1639 102.989 49.2128 103.35C49.2128 103.35 48.9686 102.972 49.3135 102.352L49.1212 101.895C49.1212 101.895 48.816 102.561 48.8389 102.886C48.8389 102.886 48.6497 102.462 49.0831 101.774L48.961 101.3C48.801 101.588 48.6794 101.896 48.5994 102.215C48.5994 102.215 48.5078 101.782 48.9305 101.157L48.8862 100.829C48.8862 100.829 48.6726 101.237 48.6223 101.361C48.5719 101.485 48.5338 101.48 48.5338 101.48C48.569 101.191 48.6842 100.918 48.8664 100.691C48.8664 100.691 48.816 100.008 48.7748 100.008Z" fill="#B338FF"/>
<path opacity="0.1" d="M43.8404 67.7319C43.8404 67.7319 42.5984 71.1548 45.1634 71.4675C45.2812 71.5252 45.4142 71.5443 45.5435 71.5222C45.6727 71.5 45.7918 71.4376 45.8836 71.344C45.8836 71.344 45.7035 71.2845 45.8698 70.9504C45.9274 70.8313 45.9709 70.7059 45.9995 70.5767C46.0386 70.4026 46.0199 70.2206 45.9461 70.0581C45.9461 70.0581 45.8317 68.9583 44.3409 68.1026C44.3409 68.1026 44.0754 67.7167 43.9823 67.7014L44.0602 68.365C44.0602 68.365 44.5439 68.2887 44.849 68.551C44.849 68.551 44.0861 68.3451 44.0663 68.4641C44.0663 68.487 44.1227 68.8134 44.1227 68.8134C44.1227 68.8134 44.965 68.6853 45.4258 69.1063C45.4258 69.1063 44.5439 68.7371 44.1441 68.937L44.2631 69.422C44.2631 69.422 45.1466 69.2436 45.6898 69.7027C45.6898 69.7027 44.7544 69.3488 44.2967 69.5273L44.4783 69.9849C44.4783 69.9849 45.3434 69.8324 45.792 70.2137C45.792 70.2137 44.6705 69.9086 44.5271 70.0886C44.6052 70.2662 44.7046 70.4337 44.8231 70.5874C44.8231 70.5874 45.4472 70.4898 45.6883 70.7399C45.6883 70.7399 44.9177 70.6194 44.8902 70.6988C44.8902 70.6988 45.2839 71.1716 45.6104 71.3089C45.304 71.2 45.0311 71.0134 44.8185 70.7674C44.7983 70.9668 44.837 71.1678 44.9299 71.3455C44.9299 71.3455 44.5973 71.193 44.7254 70.6515C44.7254 70.6515 44.4325 70.2717 44.431 70.1939C44.431 70.1939 44.2311 70.7079 44.2784 71.0709C44.2784 71.0709 44.0327 70.6911 44.3791 70.0734L44.1853 69.6158C44.1853 69.6158 43.8801 70.2823 43.903 70.6088C43.903 70.6088 43.7138 70.1832 44.1471 69.4952L44.0251 69.0209C43.8654 69.309 43.7438 69.6166 43.6634 69.9361C43.6634 69.9361 43.5734 69.5044 43.9946 68.8775L43.9518 68.551C43.9518 68.551 43.7367 68.9598 43.6863 69.0819C43.636 69.2039 43.5978 69.2024 43.5978 69.2024C43.6331 68.9137 43.7483 68.6405 43.9305 68.4138C43.9305 68.4138 43.8832 67.7319 43.8404 67.7319Z" fill="#B338FF"/>
<path opacity="0.1" d="M53.0623 86.3729C53.0623 86.3729 54.022 89.8812 56.2986 88.6609C56.428 88.6404 56.5476 88.5794 56.6402 88.4868C56.7328 88.3942 56.7938 88.2747 56.8144 88.1454C56.8144 88.1454 56.6343 88.2003 56.5779 87.8327C56.5563 87.7022 56.5195 87.5747 56.468 87.4528C56.4004 87.2872 56.2796 87.1488 56.1247 87.0593C56.1247 87.0593 55.3968 86.2264 53.6833 86.3851C53.6833 86.3851 53.2438 86.2249 53.1584 86.2661L53.6039 86.7619C53.6039 86.7619 53.9564 86.4217 54.3577 86.4568C54.3577 86.4568 53.6116 86.7313 53.6665 86.8366C53.6787 86.8579 53.9137 87.0898 53.9137 87.0898C53.9137 87.0898 54.524 86.4995 55.1466 86.5773C55.1466 86.5773 54.2143 86.7847 54.0037 87.1783L54.3806 87.5062C54.3806 87.5062 55.0001 86.8518 55.7081 86.9129C55.7081 86.9129 54.7392 87.163 54.4676 87.5718L54.8826 87.8449C54.8826 87.8449 55.493 87.2179 56.0881 87.2744C56.0881 87.2744 54.9986 87.6755 54.9818 87.9013C55.1485 88.0015 55.3268 88.0809 55.5128 88.1377C55.5128 88.1377 55.9706 87.6984 56.3047 87.761C56.3047 87.761 55.6044 88.1072 55.6288 88.1881C55.6288 88.1881 56.2239 88.3406 56.5672 88.2674C56.2546 88.356 55.9242 88.3612 55.6089 88.2826C55.7071 88.4572 55.8547 88.5989 56.0331 88.6899C56.0331 88.6899 55.673 88.7555 55.4655 88.2415C55.4655 88.2415 55.0077 88.0996 54.9589 88.0355C54.9589 88.0355 55.0932 88.5725 55.3404 88.8409C55.3404 88.8409 54.9223 88.6716 54.8475 87.9669L54.4249 87.703C54.4249 87.703 54.5637 88.4214 54.7651 88.6762C54.7651 88.6762 54.3653 88.4382 54.3226 87.6267L53.9503 87.3095C53.9866 87.6386 54.0656 87.9617 54.1853 88.2704C54.1853 88.2704 53.8633 87.9654 53.8466 87.2149L53.6222 86.9724C53.6222 86.9724 53.6833 87.43 53.7123 87.5596C53.7413 87.6893 53.7123 87.7122 53.7123 87.7122C53.5748 87.4559 53.5114 87.1665 53.5292 86.8763C53.5292 86.8763 53.0974 86.35 53.0623 86.3729Z" fill="#B338FF"/>
<path opacity="0.1" d="M79.1003 89.5064C79.1003 89.5064 80.0601 93.0147 82.3352 91.7944C82.4649 91.7744 82.5849 91.7136 82.6779 91.621C82.7709 91.5283 82.832 91.4085 82.8525 91.2789C82.8525 91.2789 82.6709 91.3338 82.6144 90.9738C82.5941 90.8432 82.5577 90.7156 82.5061 90.594C82.4374 90.4286 82.3162 90.2903 82.1612 90.2004C82.1612 90.2004 81.4334 89.3676 79.7198 89.5277C79.7198 89.5277 79.2804 89.366 79.1965 89.4072L79.6405 89.903C79.6405 89.903 79.993 89.5628 80.3943 89.5979C80.3943 89.5979 79.6481 89.8725 79.7046 89.9777C79.7153 89.9991 79.9518 90.2309 79.9518 90.2309C79.9518 90.2309 80.5621 89.6406 81.1847 89.7184C81.1847 89.7184 80.2508 89.9259 80.0403 90.3194L80.4187 90.6474C80.4187 90.6474 81.029 89.993 81.7447 90.054C81.7447 90.054 80.7773 90.3041 80.5057 90.7129L80.9207 90.986C80.9207 90.986 81.5311 90.3591 82.1246 90.4155C82.1246 90.4155 81.0351 90.8167 81.0199 91.0424C81.186 91.1427 81.3638 91.2221 81.5494 91.2789C81.5494 91.2789 82.0071 90.8395 82.3413 90.9021C82.3413 90.9021 81.6424 91.2483 81.6653 91.3292C81.6653 91.3292 82.2604 91.4817 82.6053 91.4085C82.2921 91.497 81.9613 91.5023 81.6455 91.4238C81.7441 91.598 81.8916 91.7395 82.0697 91.831C82.0697 91.831 81.7096 91.8966 81.5021 91.3826C81.5021 91.3826 81.0443 91.2407 80.997 91.1767C80.997 91.1767 81.1297 91.7136 81.3769 91.982C81.3769 91.982 80.9589 91.8127 80.8841 91.108L80.4614 90.8411C80.4614 90.8411 80.6003 91.5595 80.8032 91.8143C80.8032 91.8143 80.4034 91.5763 80.3607 90.7648L79.9869 90.4475C80.0231 90.7769 80.1026 91.1 80.2234 91.4085C80.2234 91.4085 79.8999 91.1034 79.8831 90.353L79.6588 90.1104C79.6588 90.1104 79.7198 90.568 79.7488 90.6977C79.7778 90.8273 79.7488 90.8502 79.7488 90.8502C79.6114 90.594 79.548 90.3045 79.5657 90.0143C79.5657 90.0143 79.1354 89.4835 79.1003 89.5064Z" fill="#B338FF"/>
<path d="M69.3314 124.74C69.3314 124.74 77.2476 122.075 75.6088 112.633L65.5533 110.023L63.2188 117.77L69.3314 124.74Z" fill="#CED7E7"/>
<path opacity="0.1" d="M63.2188 117.77L69.3298 124.739C69.3298 124.739 77.2461 122.074 75.6073 112.632L63.2188 117.77Z" fill="black"/>
<path d="M29.9543 48.015C29.9543 48.015 31.0224 49.7524 32.4826 48.8845C33.9429 48.0166 32.5422 45.6187 32.5422 45.6187C32.5422 45.6187 29.7452 45.2358 29.9543 48.015Z" fill="#30004E"/>
<path opacity="0.1" d="M32.4827 48.8836C32.3104 48.995 32.1172 49.0701 31.9149 49.1042C31.7126 49.1383 31.5055 49.1307 31.3062 49.0819C30.7707 48.9462 30.3587 48.5343 30.1374 48.2643C30.0714 48.1852 30.0103 48.1022 29.9543 48.0157C29.8796 47.0242 30.1878 46.4339 30.615 46.0861C31.2025 45.6087 32.0158 45.5888 32.3667 45.6041C32.4751 45.6041 32.5376 45.6193 32.5376 45.6193L32.5666 45.6681C32.6078 45.7459 32.6978 45.9183 32.794 46.1486C33.1205 46.9037 33.5096 48.2719 32.4827 48.8836Z" fill="black"/>
<path d="M70.109 112.188L75.6021 112.632L85.8254 112.716L77.7704 122.631C77.7704 122.631 75.2145 122.77 74.6881 123.13C74.1617 123.49 66.7704 123.297 66.7704 123.297L65.5771 118.215L70.109 112.188Z" fill="#FFA2A2"/>
<path opacity="0.05" d="M70.109 112.188L75.6021 112.632L85.8254 112.716L77.7704 122.631C77.7704 122.631 75.2145 122.77 74.6881 123.13C74.1617 123.49 66.7704 123.297 66.7704 123.297L65.5771 118.215L70.109 112.188Z" fill="black"/>
<path d="M64.5532 85.5311L65.8304 87.6971L66.1081 91.4739C66.1081 91.4739 66.9977 94.6939 67.6645 95.6381C68.3313 96.5823 68.609 99.0824 68.609 99.0824C68.609 99.0824 68.8867 101.415 69.2194 101.914C69.552 102.412 69.9976 106.032 69.9976 106.032C69.9976 106.032 72.9425 111.918 75.6082 112.64C75.6082 112.64 62.3865 116.972 69.3307 124.747C69.3307 124.747 64.3869 125.967 63.2196 124.58C62.0524 123.194 58.9976 102.644 58.9976 102.644L59.9421 85.316L64.5532 85.5311Z" fill="#CED7E7"/>
<path opacity="0.05" d="M64.5532 85.5311L65.8304 87.6971L66.1081 91.4739C66.1081 91.4739 66.9977 94.6939 67.6645 95.6381C68.3313 96.5823 68.609 99.0824 68.609 99.0824C68.609 99.0824 68.8867 101.415 69.2194 101.914C69.552 102.412 69.9976 106.032 69.9976 106.032C69.9976 106.032 72.9425 111.918 75.6082 112.64C75.6082 112.64 62.3865 116.972 69.3307 124.747C69.3307 124.747 64.3869 125.967 63.2196 124.58C62.0524 123.194 58.9976 102.644 58.9976 102.644L59.9421 85.316L64.5532 85.5311Z" fill="black"/>
<path d="M48.5125 64.4208C48.1415 66.3448 48.2516 68.3307 48.8329 70.202L46.7761 76.0883C46.7761 76.0883 31.11 67.3694 32.4436 65.2582C33.1989 64.0608 33.295 60.8926 33.234 58.3758C33.1897 56.463 33.0539 54.9285 33.0539 54.9285C33.0539 54.9285 52.2799 56.8184 49.721 61.2053C49.1419 62.2024 48.7335 63.2892 48.5125 64.4208Z" fill="#FFA2A2"/>
<path opacity="0.1" d="M49.7205 61.2054C49.1414 62.2025 48.733 63.2892 48.512 64.4208C45.6589 65.3333 42.5776 65.2297 39.7922 64.1276C37.0068 63.0256 34.6892 60.9931 33.2335 58.3758C33.1893 56.463 33.0535 54.9285 33.0535 54.9285C33.0535 54.9285 52.2748 56.8184 49.7205 61.2054Z" fill="black"/>
<path d="M57.4986 51.763C57.4999 53.7991 57.0206 55.8069 56.0996 57.623C55.1786 59.4391 53.8419 61.0124 52.1982 62.2149C50.5545 63.4173 48.6501 64.2151 46.6399 64.5434C44.6297 64.8716 42.5704 64.721 40.6294 64.1038C38.6884 63.4867 36.9204 62.4204 35.4692 60.9916C34.0181 59.5628 32.9246 57.8119 32.2778 55.8811C31.6309 53.9503 31.449 51.8942 31.7467 49.8799C32.0444 47.8656 32.8134 45.9499 33.9911 44.2887C34.1742 44.0314 34.3669 43.7802 34.5694 43.5351C35.7228 42.1337 37.1582 40.9903 38.7823 40.1793C39.6634 39.7386 40.5928 39.4018 41.5517 39.1756C43.2832 38.7656 45.0806 38.7161 46.832 39.0302C48.5835 39.3443 50.2515 40.0154 51.7324 41.0016C53.2133 41.9878 54.4753 43.2681 55.44 44.7628C56.4047 46.2575 57.0514 47.9347 57.3399 49.69C57.4477 50.3757 57.5007 51.0689 57.4986 51.763Z" fill="#FFA2A2"/>
<path d="M62.6082 104.971C62.4144 106.005 62.657 107.895 63.0248 109.818C63.04 109.902 63.0568 109.986 63.0736 110.07C63.0904 110.154 63.1148 110.284 63.1361 110.389C63.3055 111.216 63.4901 112.035 63.6702 112.779C63.8502 113.523 64.012 114.161 64.1493 114.686C64.3568 115.471 64.4987 115.966 64.4987 115.966C64.4987 115.966 64.5171 116.451 64.5415 117.222C64.5552 117.668 64.5705 118.211 64.5857 118.81C64.5857 118.984 64.5964 119.161 64.601 119.344C64.6086 119.663 64.6162 119.994 64.6239 120.333C64.6239 120.443 64.6239 120.552 64.6315 120.664C64.6315 121.028 64.6452 121.4 64.6513 121.771C64.659 122.281 64.6651 122.79 64.6681 123.284C64.6681 123.473 64.6681 123.66 64.6681 123.843C64.6681 124.315 64.6681 124.768 64.6681 125.185C64.6513 126.367 64.604 127.259 64.5033 127.517C64.4682 127.606 64.4362 127.702 64.4057 127.802C64.2734 128.276 64.1775 128.759 64.1188 129.247L63.8594 129.035C63.3635 128.626 62.8722 128.208 62.3732 127.802C61.5439 127.108 60.6635 126.477 59.7396 125.914C59.677 125.877 59.6144 125.841 59.5503 125.806C59.3794 125.707 59.2055 125.614 59.0285 125.525C58.6639 125.341 58.29 125.176 57.9085 125.031C56.1461 124.36 54.2586 124.116 52.3452 124.157C51.5823 124.448 51.0864 124.657 51.0864 124.657L50.1159 124.95L49.9542 124.999C48.9028 125.319 47.4243 125.774 46.8917 125.963C46.0312 126.268 38.559 127.822 38.559 127.822C37.8763 128.009 37.179 128.136 36.4746 128.204C35.1921 128.564 33.8865 128.837 32.5669 129.021C29.5682 129.404 26.5225 129.159 23.6238 128.301C23.5372 128.306 23.4504 128.304 23.3644 128.294C23.4178 128.294 23.4697 128.281 23.517 128.272L23.3308 128.217L23.076 128.138C22.6487 128.004 22.2251 127.857 21.8049 127.697L21.5501 127.6C21.1432 127.443 20.745 127.275 20.3554 127.095L20.1005 126.979C19.6936 126.79 19.2954 126.59 18.9058 126.379C18.7654 126.306 18.6265 126.227 18.4892 126.152C18.0742 125.92 17.6673 125.677 17.2685 125.423C17.2014 124.848 17.1663 124.463 17.1663 124.463L16.5712 121.501L16.5407 121.349L16.1134 119.213L16.0829 119.061L15.1537 114.414L15.1232 114.262L14.6959 112.126L14.6654 111.974L13.7239 107.33L13.6934 107.178L13.2662 105.042L13.2357 104.89L12.3018 100.238L12.2713 100.085L11.8441 97.9571L11.8135 97.8045L11.6442 96.9656L11.3894 95.695C11.3894 95.695 10.5761 94.5326 9.66054 93.1583L9.55831 93.0057C9.29739 92.6198 9.02883 92.2187 8.76791 91.8251C8.68093 91.6955 8.59701 91.5673 8.51309 91.4407C8.38593 91.2485 8.26285 91.0609 8.14383 90.8779L8.06143 90.7513L8.04465 90.7253C6.72935 88.6905 7.60977 87.8058 7.60977 87.8058C7.60977 87.8058 8.16214 87.0583 8.87472 86.0699C8.90981 86.0196 8.94644 85.9692 8.98458 85.9174C9.28976 85.4903 9.62545 85.0235 9.95503 84.5567L10.2099 84.1937C10.306 84.0579 10.4006 83.9222 10.4921 83.788C10.5288 83.7376 10.5639 83.6858 10.5974 83.6354C11.3009 82.6195 11.8807 81.7333 11.9997 81.4191C12.1859 80.9233 13.373 79.4574 14.5555 78.1716C15.4878 77.1557 16.4156 76.2526 16.8321 76.036C17.7766 75.5372 18.1657 73.9249 18.1657 73.9249C18.1657 73.9249 20.2211 73.205 20.4988 72.6497C20.7765 72.0945 24.6659 69.599 24.6659 69.599C24.6659 69.599 26.2391 68.5861 26.8754 67.976C26.9655 67.8962 27.044 67.8043 27.1089 67.703C27.3301 67.3064 28.7751 66.9799 29.3626 66.8625C29.5151 66.832 29.6098 66.8152 29.6098 66.8152C29.8469 66.3844 30.1467 65.9911 30.4993 65.6483C30.7389 65.4363 31.038 64.7056 31.2897 63.9978C31.5629 63.226 31.775 62.4832 31.775 62.4832C32.2205 60.9837 33.1086 61.4276 33.1086 61.4276C33.1074 61.6324 33.1268 61.8368 33.1665 62.0377C33.5373 63.8682 35.5515 64.6309 36.6089 65.4866C37.7762 66.4293 39.6088 68.8744 41.0538 69.3732C42.25 69.7866 43.6371 71.3455 44.0765 71.8657L44.1101 71.9053C44.1833 71.9908 44.2199 72.0396 44.2199 72.0396C44.2199 72.0396 45.0393 71.9969 45.5383 71.9877H45.7199C45.8214 71.9775 45.9178 71.9383 45.9976 71.8748C46.4935 71.5377 47.232 70.5493 47.554 70.322C47.9415 70.0429 48.3322 65.5446 48.3322 65.5446L48.352 65.5354C49.736 64.8871 51.2206 71.376 51.2206 71.376C51.2206 71.376 53.8314 72.154 54.0542 72.7092C54.0969 72.819 54.2937 73.0143 54.5897 73.2507C55.9376 74.2804 57.3722 75.1914 58.8774 75.9735C58.911 75.9903 58.9431 76.0071 58.9766 76.0208C59.0069 76.0371 59.0379 76.0519 59.0697 76.065C59.1262 76.0925 59.1811 76.1169 59.233 76.1398C59.3154 76.1764 59.3917 76.2069 59.4618 76.2313L59.5534 76.2633C59.7721 76.3361 59.978 76.4426 60.1637 76.5791C60.2187 76.6187 60.2736 76.6599 60.327 76.7041C60.5348 76.877 60.7259 77.069 60.8977 77.2777C60.9236 77.3082 60.948 77.3402 60.9725 77.3707C61.0884 77.5156 61.1922 77.659 61.2776 77.7917C61.4179 77.9965 61.5458 78.2094 61.6606 78.4293C61.6606 78.4293 63.9372 82.3175 64.6605 82.7599C65.3837 83.2022 65.8278 87.7036 65.8278 87.7036L63.3864 96.7505C63.3864 96.7505 63.2719 99.0386 63.0583 101.372C62.9393 102.681 62.7882 104.013 62.6082 104.971Z" fill="#CED7E7"/>
<path d="M44.22 72.3131C44.22 72.3131 42.5827 73.2009 41.3041 73.2848C41.1367 73.2926 40.9689 73.2829 40.8036 73.2558C39.4639 73.0529 37.4985 71.9516 37.4985 71.9516L39.8041 69.4241L42.6087 70.8137L43.6402 71.7731L44.22 72.3131Z" fill="#63667E"/>
<path opacity="0.1" d="M57.334 49.6904C57.276 49.7724 57.2101 49.8485 57.1372 49.9176C56.3346 50.6803 54.9094 50.3646 53.8154 50.1876C52.8647 50.0323 51.936 49.7639 51.049 49.3883C50.2769 49.0588 49.3507 48.6562 48.6564 49.129C48.3894 49.309 48.2063 49.5973 47.9286 49.7559C47.6508 49.9146 47.2968 49.9253 46.9688 49.9298C45.9007 49.9298 44.8326 49.942 43.7904 49.701C42.2355 49.338 40.6273 48.4243 39.1487 49.0268C37.9921 49.4966 37.365 50.7551 37.0522 51.9647C36.8996 52.558 36.7867 53.185 36.4418 53.6883C36.097 54.1917 35.4302 54.5486 34.8625 54.3122C34.0248 53.9629 33.9012 52.5413 32.8911 52.4696C31.7818 52.3918 31.7955 53.5373 32.119 54.3656C32.5981 55.5859 33.2253 56.8062 33.2527 58.0784C32.0605 55.9437 31.4972 53.5153 31.6279 51.074C31.7586 48.6326 32.578 46.2782 33.9913 44.2829C34.2372 44.1307 34.4297 43.9057 34.5421 43.6392C34.5534 43.6032 34.5626 43.5665 34.5696 43.5294C34.6535 43.1038 34.417 42.6569 34.4033 42.2115C34.3498 41.1239 35.5278 40.3658 36.6081 40.2285C37.3268 40.137 38.0623 40.2071 38.7825 40.1843C39.1453 40.1763 39.506 40.1282 39.8582 40.0409C40.4658 39.8589 41.0348 39.5667 41.5367 39.179C43.2682 38.769 45.0655 38.7195 46.817 39.0336C48.5684 39.3477 50.2365 40.0188 51.7174 41.005C53.1982 41.9912 54.4603 43.2715 55.425 44.7662C56.3897 46.2609 57.0364 47.9381 57.3249 49.6934L57.334 49.6904Z" fill="black"/>
<path d="M57.5941 48.7921C57.518 49.0938 57.3595 49.3685 57.1363 49.5853C56.3337 50.348 54.9086 50.0307 53.8145 49.8538C52.8638 49.7018 51.9349 49.4355 51.0481 49.0606C50.276 48.7326 49.3498 48.3299 48.6556 48.8028C48.3885 48.9828 48.2054 49.2711 47.9277 49.4297C47.65 49.5884 47.296 49.5991 46.968 49.6021C45.8998 49.6097 44.8317 49.6158 43.7896 49.3748C42.2347 49.0103 40.6264 48.0981 39.1479 48.6991C37.9913 49.1689 37.3641 50.4289 37.0513 51.6385C36.8988 52.2318 36.7858 52.8588 36.441 53.3606C36.0961 53.8625 35.4293 54.2224 34.8617 53.986C34.024 53.6367 33.9004 52.2151 32.8903 52.1434C31.781 52.0656 31.7947 53.2111 32.1182 54.0394C32.6858 55.4839 33.4579 56.9208 33.2046 58.4523C32.9529 58.4523 32.5363 58.4431 32.2891 58.437C32.4814 58.1091 32.1152 57.7186 31.7505 57.6072C31.3858 57.4959 30.9601 57.4974 30.6824 57.232C30.4047 56.9666 30.4031 56.5562 30.4321 56.1886C30.4954 55.4029 30.6877 54.633 31.0013 53.9097C31.2012 53.4521 31.459 52.9564 31.3064 52.4774C31.2149 52.2603 31.1046 52.0516 30.9769 51.8535C30.6595 51.2434 30.7342 50.4807 31.0059 49.8507C31.1218 49.5823 31.2057 49.3291 31.3019 49.0881C31.4233 48.7455 31.5989 48.4246 31.8222 48.1378C32.1716 47.703 32.5134 47.0486 32.1274 46.6444C32.0297 46.5422 32.225 46.4721 32.1625 46.3393C32.1514 46.3167 32.1437 46.2925 32.1396 46.2677C32.1216 46.107 32.1605 45.9451 32.2494 45.81C32.2675 45.775 32.2873 45.7408 32.3089 45.7078C32.3265 45.673 32.3464 45.6394 32.3685 45.6072C32.7063 45.0432 33.1554 44.5538 33.6883 44.1687C34.0194 43.9293 34.407 43.6989 34.5382 43.3115C34.6908 42.8539 34.4223 42.3673 34.3994 41.8838C34.346 40.7962 35.5239 40.0381 36.6043 39.9008C37.6846 39.7635 38.8046 39.9908 39.8574 39.7116C41.3512 39.3181 42.401 38.0002 43.7575 37.2604C44.4996 36.8637 45.3226 36.6418 46.1635 36.6117C47.0045 36.5816 47.8412 36.744 48.6098 37.0865C50.1936 37.8095 51.3884 39.2708 53.0424 39.8199C53.6284 40.0152 54.2631 40.093 54.7911 40.4163C55.4014 40.7916 55.7722 41.4475 56.0896 42.0943C56.5733 43.0751 56.6709 44.0604 57.0051 45.0992C57.2706 45.9229 57.6384 46.9998 57.6689 47.9486C57.686 48.2319 57.6608 48.5162 57.5941 48.7921Z" fill="#896363"/>
<g opacity="0.1">
<path d="M32.3256 46.8823C32.3501 46.7846 32.3525 46.6828 32.3327 46.5841C32.3129 46.4855 32.2714 46.3924 32.2112 46.3118C32.2509 46.4307 32.0785 46.4994 32.1731 46.5985C32.2484 46.6777 32.3011 46.7757 32.3256 46.8823Z" fill="black"/>
<path d="M32.2074 45.9614C32.1883 46.0181 32.1768 46.077 32.1733 46.1367C32.2042 46.0848 32.2464 46.0312 32.2074 45.9614Z" fill="black"/>
<path d="M57.1784 49.2141C56.3742 49.9768 54.9506 49.6611 53.8535 49.4826C52.9034 49.3297 51.9755 49.0618 51.0901 48.6848C50.3165 48.3554 49.3918 47.9527 48.6961 48.4255C48.4305 48.6055 48.2474 48.8938 47.9682 49.0525C47.689 49.2111 47.3365 49.2218 47.0084 49.2248C45.9403 49.2248 44.8722 49.2386 43.8285 48.996C42.2752 48.633 40.6669 47.7223 39.1884 48.3218C38.0318 48.7931 37.4046 50.0516 37.0918 51.2612C36.9392 51.8546 36.8279 52.4815 36.4815 52.9849C36.1351 53.4882 35.4683 53.8452 34.9022 53.6103C34.0645 53.2594 33.9409 51.8393 32.9308 51.7676C32.1419 51.7112 31.9222 52.2756 31.9756 52.9025C32.0214 52.4235 32.2808 52.0544 32.9308 52.1001C33.9409 52.1718 34.0645 53.5935 34.9022 53.9428C35.4683 54.1792 36.1366 53.8238 36.4815 53.3174C36.8263 52.811 36.9392 52.1871 37.0918 51.5952C37.4046 50.3856 38.0318 49.1257 39.1884 48.6559C40.6669 48.0549 42.2752 48.9609 43.8285 49.3301C44.8661 49.5726 45.9434 49.565 47.0084 49.5574C47.3365 49.5574 47.6829 49.5482 47.9682 49.3865C48.2536 49.2248 48.426 48.9396 48.6961 48.7581C49.3918 48.2867 50.3165 48.6894 51.0901 49.0174C51.9757 49.3941 52.9035 49.6625 53.8535 49.8167C54.9506 49.9936 56.3742 50.3124 57.1784 49.5467C57.6148 49.1303 57.746 48.5277 57.717 47.8688C57.6926 48.392 57.54 48.8664 57.1784 49.2141Z" fill="black"/>
<path d="M34.4528 41.6086C34.4443 41.6846 34.4413 41.7611 34.4436 41.8374C34.4589 42.1547 34.5794 42.472 34.6176 42.7817C34.674 42.4018 34.4986 42.0052 34.4528 41.6086Z" fill="black"/>
<path d="M31.3514 52.4308C31.364 52.4764 31.3737 52.5227 31.3804 52.5696C31.4051 52.4122 31.3952 52.2514 31.3514 52.0982C31.2604 51.8804 31.1501 51.6711 31.0218 51.4728C30.9072 51.2472 30.8392 51.0008 30.8219 50.7483C30.7909 51.1128 30.86 51.4788 31.0218 51.8069C31.1504 52.0044 31.2607 52.2132 31.3514 52.4308Z" fill="black"/>
<path d="M33.2455 58.0728L32.3529 58.0591C32.3737 58.113 32.3821 58.1709 32.3773 58.2285C32.3726 58.2861 32.3548 58.3418 32.3254 58.3916C32.5772 58.3916 32.9953 58.4007 33.241 58.4068C33.2836 58.1458 33.2985 57.8809 33.2852 57.6167C33.2817 57.7694 33.2685 57.9218 33.2455 58.0728Z" fill="black"/>
<path d="M31.785 57.2276C31.4203 57.1178 30.9961 57.1163 30.7245 56.8493C30.5646 56.6745 30.4745 56.4471 30.4712 56.2102C30.4483 56.561 30.4712 56.9393 30.7245 57.1834C30.9961 57.4503 31.4203 57.4519 31.785 57.5617C31.9036 57.5962 32.014 57.6546 32.1092 57.7333C32.2045 57.812 32.2826 57.9093 32.3389 58.0193C32.493 57.7035 32.139 57.3329 31.785 57.2276Z" fill="black"/>
</g>
<path opacity="0.1" d="M59.5462 125.804C59.3753 125.705 59.2013 125.612 59.0243 125.524C58.6597 125.34 58.2859 125.175 57.9044 125.03C56.142 124.358 54.2545 124.114 52.341 124.156C51.5781 124.447 51.0822 124.656 51.0822 124.656L50.1117 124.949L49.95 124.998C49.9393 124.891 49.9271 124.784 49.9164 124.676C49.9058 124.567 49.8935 124.464 49.8813 124.357C49.5395 121.122 49.271 117.798 49.271 117.798V114.927V114.593L49.2527 106.135L49.1001 103.347L49.0284 102.112L49.0146 101.878L48.9872 101.396L48.9719 101.109C48.9382 101.018 48.9097 100.925 48.8865 100.831C48.8758 100.793 48.8651 100.75 48.856 100.706C48.8178 100.554 48.7766 100.357 48.7339 100.143C48.4547 98.7399 48.1052 96.3741 48.0839 95.8936C48.0564 95.2529 47.501 91.4212 47.501 91.4212C47.4445 89.3116 45.6699 85.3396 45.2229 84.5906C44.7758 83.8417 44.2768 79.3418 44.4447 79.0993C44.5316 78.9696 44.5881 78.2024 44.6232 77.4946C44.6232 77.4138 44.6308 77.3344 44.6339 77.2567C44.6568 76.7029 44.6674 76.2408 44.6674 76.2408L46.413 75.896L46.8815 75.8045L46.9181 75.7969L46.9334 75.8274C46.9837 75.9204 47.1409 76.2179 47.3255 76.6084C47.3469 76.6496 47.3667 76.6938 47.3881 76.738C47.3972 76.7594 47.4079 76.7807 47.4186 76.8021C47.7604 77.5495 48.1556 78.5334 48.1388 79.0993C48.1113 80.0999 49.2512 82.5161 49.2512 82.5161C49.361 83.0713 51.778 88.5962 51.778 88.5962C51.778 88.5962 53.7509 94.0113 53.6395 94.9006C53.5282 95.7899 54.5841 101.676 54.5841 101.676L55.6674 107.73C56.1939 108.923 56.8881 111.672 56.8881 111.672L57.1521 113.231L57.2025 113.528L57.9059 117.688L58.2507 119.726C58.2507 119.726 58.3957 120.809 58.6154 122.014C58.6337 122.122 58.6551 122.232 58.6764 122.342C58.8118 123.135 59.0041 123.918 59.2517 124.683C59.3745 125.05 59.4729 125.425 59.5462 125.804Z" fill="black"/>
<path d="M59.7346 125.914C59.672 125.877 59.6095 125.841 59.5454 125.806C59.3745 125.707 59.2005 125.614 59.0235 125.525C58.6589 125.341 58.2851 125.176 57.9035 125.031C56.1412 124.36 54.2537 124.116 52.3402 124.157C51.5773 124.448 51.0814 124.657 51.0814 124.657L50.1109 124.95C50.0987 124.843 50.088 124.736 50.0758 124.628C50.0636 124.52 50.0545 124.433 50.0453 124.335C49.7035 121.108 49.435 117.799 49.435 117.799V114.901V114.567L49.4166 106.13L49.2641 103.467L49.2335 102.915L49.2122 102.541L49.1847 102.047L49.1573 101.545L49.1374 101.183V101.104C49.1374 101.096 49.1374 101.087 49.1267 101.078C49.0977 100.996 49.0626 100.871 49.0245 100.712L49.0062 100.636C48.9986 100.601 48.9894 100.562 48.9818 100.524C48.6949 99.2232 48.2738 96.4181 48.2509 95.8918C48.2234 95.2512 47.668 91.4194 47.668 91.4194C47.6115 89.3099 45.837 85.3378 45.3899 84.5888C44.9428 83.8399 44.4454 79.3401 44.6117 79.0975C44.7078 78.945 44.7643 78.0191 44.8009 77.2549C44.8009 77.1939 44.8009 77.1344 44.8009 77.0779C44.8207 76.6066 44.8284 76.239 44.8284 76.239L46.4519 75.9187L46.8639 75.8378L46.928 75.8256L47.0805 75.7951C47.0805 75.7951 47.2804 76.1642 47.52 76.6722L47.5505 76.7363C47.8999 77.4898 48.3134 78.5148 48.3012 79.0975C48.2738 80.0982 49.4136 82.5143 49.4136 82.5143C49.5235 83.0696 51.9404 88.5945 51.9404 88.5945C51.9404 88.5945 53.9134 94.0095 53.802 94.8988C53.6906 95.7881 54.7465 101.674 54.7465 101.674L55.8299 107.729C56.3563 108.921 57.0506 111.67 57.0506 111.67L57.2962 113.122L57.3466 113.417L57.9005 116.699L58.4116 119.724C58.4116 119.724 58.5642 120.803 58.7748 122.012C58.7946 122.122 58.8145 122.232 58.8358 122.343C58.971 123.14 59.1632 123.926 59.4111 124.695C59.5464 125.094 59.6544 125.501 59.7346 125.914Z" fill="#63667E"/>
<path d="M58.3583 47.5713C58.3583 47.5713 57.7754 48.3218 57.249 48.3218C56.7226 48.3218 54.6733 48.2379 53.6052 47.9054C52.5371 47.5728 47.3004 47.3212 47.3004 47.3212C47.3004 47.3212 39.8846 47.3486 39.6344 47.0985C39.3842 46.8483 35.0232 45.5151 34.5792 45.599C34.4861 45.6173 34.2588 45.657 33.9551 45.7073L33.6072 45.7638C33.0808 45.8477 32.4231 45.9453 31.822 46.017C31.0789 46.1039 30.4258 46.1482 30.2183 46.0719V45.4328C30.2183 45.4328 31.0789 44.182 31.1338 43.8235C31.1887 43.465 31.912 38.2681 33.801 36.4087C34.5814 34.9174 35.8443 33.7344 37.3837 33.0529C39.9396 31.9409 42.4954 30.9982 42.4954 30.9982L42.9425 30.9341L44.3844 30.7206C44.4283 30.677 44.4757 30.6372 44.5263 30.6016C44.9261 30.2965 46.1376 29.633 47.7169 31.0592L47.9961 31.5046C47.9961 31.5046 52.856 32.6426 55.1052 36.6131C57.3543 40.5836 57.4672 44.4718 57.6335 46.2488C57.6335 46.2488 57.5221 46.7491 57.7449 46.9429C57.8256 47.0141 57.9025 47.0894 57.9753 47.1686C57.9952 47.1885 58.015 47.2083 58.0333 47.2296C58.0974 47.2937 58.1569 47.3608 58.2057 47.4157C58.2116 47.42 58.2167 47.4252 58.221 47.431C58.2329 47.4454 58.2456 47.4592 58.2591 47.4722L58.3583 47.5713Z" fill="#30004E"/>
<path opacity="0.05" d="M58.3591 47.5726C58.3591 47.5726 57.7762 48.3231 57.2498 48.3231C56.7234 48.3231 54.6741 48.2392 53.606 47.9067C52.5379 47.5741 47.3011 47.3224 47.3011 47.3224C47.3011 47.3224 39.8854 47.3499 39.6352 47.0997C39.3849 46.8496 35.024 45.5164 34.5799 45.6003C34.4869 45.6186 34.2595 45.6583 33.9559 45.7086L33.8765 45.2205L33.8567 45.1C33.8567 45.1 42.2734 43.2955 47.884 44.2412C53.4946 45.1869 57.6343 46.2394 57.6343 46.2394C57.6343 46.2394 57.5229 46.7398 57.7457 46.9335C57.8263 47.0047 57.9032 47.08 57.9761 47.1592C57.9959 47.1791 58.0158 47.1989 58.0341 47.2202C58.0982 47.2843 58.1577 47.3514 58.2065 47.4063C58.2123 47.4106 58.2175 47.4158 58.2218 47.4216C58.2337 47.436 58.2464 47.4498 58.2599 47.4628L58.3591 47.5726Z" fill="black"/>
<path opacity="0.1" d="M57.5947 48.7931C56.5555 48.8739 54.6406 48.6207 53.8029 48.4972C53.5648 48.4621 53.3314 48.4194 53.0964 48.3675C52.1977 48.1723 49.4343 47.6247 47.7558 47.8779C45.728 48.1829 40.006 47.6277 40.006 47.6277C40.006 47.6277 36.4781 46.9062 35.0606 46.3235C34.5403 46.1084 33.6705 46.0413 32.8054 46.1481C32.5847 46.1756 32.3657 46.2148 32.1493 46.2656C30.9682 46.5447 29.9718 47.1808 30.1443 48.2653C30.0783 48.1862 30.0171 48.1032 29.9612 48.0167C29.8864 47.0252 30.1946 46.4349 30.6219 46.0871L30.7226 46.0459C31.2445 45.8976 31.7756 45.784 32.3125 45.7057C32.3964 45.692 32.4834 45.6798 32.5719 45.6691C34.0902 45.4647 36.2859 45.419 38.1383 46.351C38.1383 46.351 39.8595 47.1579 41.0268 47.1579C42.1941 47.1579 51.6926 47.2418 53.9158 47.8794C54.3584 48.0072 54.8097 48.1026 55.2662 48.1646C56.0767 48.2691 56.9003 48.1915 57.6771 47.9374C57.6929 48.2251 57.6652 48.5136 57.5947 48.7931Z" fill="black"/>
<path opacity="0.1" d="M58.3583 47.5725C58.3583 47.5725 57.7754 48.323 57.249 48.323C56.7226 48.323 54.6733 48.2391 53.6052 47.9066C52.5371 47.574 47.3004 47.3224 47.3004 47.3224C47.3004 47.3224 39.8846 47.3498 39.6344 47.0997C39.3842 46.8495 35.0232 45.5163 34.5792 45.6002C34.4861 45.6185 34.2588 45.6582 33.9551 45.7085L33.6072 45.765C33.003 45.7619 32.4015 45.8472 31.822 46.0182C31.0789 46.1051 30.4258 46.1494 30.2183 46.0731V45.9465C30.3783 45.8537 30.5451 45.7731 30.7172 45.7055C31.7469 45.4172 32.8072 45.2524 33.8758 45.2143C35.2079 45.1655 36.7658 45.3211 38.1345 46.0105C38.1345 46.0105 39.8556 46.8175 41.0229 46.8175C42.1902 46.8175 51.6888 46.8998 53.9119 47.539C54.3547 47.6656 54.806 47.7604 55.2623 47.8227C56.2636 47.9488 57.2804 47.8029 58.2057 47.4002C58.2116 47.4044 58.2167 47.4096 58.221 47.4154C58.2329 47.4298 58.2457 47.4436 58.2591 47.4566L58.3583 47.5725Z" fill="black"/>
<path d="M30.1644 48.2388C30.1644 48.2388 28.3029 46.8217 30.7198 45.8775C30.7198 45.8775 34.9419 44.5733 38.1371 46.1826C38.1371 46.1826 39.8583 46.9864 41.0256 46.9864C42.1928 46.9864 51.6914 47.0703 53.9146 47.7094C54.3573 47.8362 54.8086 47.9311 55.265 47.9932C56.4477 48.1365 57.6459 47.9089 58.6936 47.3418C58.8462 47.2579 58.9835 47.2152 59.0247 47.264C59.1635 47.4318 59.0537 48.4035 57.8315 48.5972C56.8778 48.7497 54.7111 48.4615 53.8001 48.3287C53.5636 48.2937 53.3286 48.2494 53.0952 48.1991C52.1964 48.0038 49.4331 47.4562 47.747 47.7094C45.7206 48.0145 39.9971 47.4593 39.9971 47.4593C39.9971 47.4593 36.4708 46.7378 35.0533 46.1536C33.6358 45.5694 29.6365 46.0727 30.1644 48.2388Z" fill="#30004E"/>
<path opacity="0.1" d="M45.858 33.3489C45.7054 33.1292 43.7446 31.5596 42.9451 30.9251L44.387 30.7115C44.4308 30.6679 44.4783 30.6281 44.5289 30.5925C45.5772 31.6923 45.858 33.3489 45.858 33.3489Z" fill="black"/>
<path opacity="0.1" d="M39.4982 41.7682L38.8589 42.7124L41.3033 42.63L41.3583 41.5745L39.4982 41.7682Z" fill="black"/>
<path opacity="0.1" d="M54.4141 42.9075L54.6918 43.7678L56.2482 44.0179L55.5814 42.9898L54.4141 42.9075Z" fill="black"/>
<path opacity="0.1" d="M27.6924 71.7893C27.8587 72.0669 33.3305 79.2636 34.7755 79.0638C36.2205 78.864 27.6924 71.7893 27.6924 71.7893Z" fill="black"/>
<path opacity="0.1" d="M46.0264 78.3655C46.0264 78.3655 47.36 79.6437 47.1647 80.1425C46.9694 80.6413 46.0264 78.3655 46.0264 78.3655Z" fill="black"/>
<path opacity="0.1" d="M31.4706 87.1412C31.4706 87.1412 30.3033 92.6111 30.9152 92.785C31.5271 92.9589 31.4706 87.1412 31.4706 87.1412Z" fill="black"/>
<path opacity="0.1" d="M46.4707 108.384C46.6645 108.939 48.2758 112.55 48.6374 112.743C48.9991 112.937 46.4707 108.384 46.4707 108.384Z" fill="black"/>
<path opacity="0.1" d="M65.1936 93.5551C65.1371 93.7488 63.7486 94.8882 64.0538 95.3046C64.359 95.7211 65.1936 93.5551 65.1936 93.5551Z" fill="black"/>
<path opacity="0.1" d="M54.414 103.691C54.3866 103.831 54.1089 106.742 54.6368 107.302C55.1648 107.861 54.414 103.691 54.414 103.691Z" fill="black"/>
<path opacity="0.1" d="M68.6468 118.81C68.244 119.034 67.8275 119.251 67.4033 119.458C66.9455 119.681 66.4877 119.893 66.0208 120.093C65.8347 120.174 65.6485 120.253 65.4639 120.329C65.1831 120.445 64.9054 120.557 64.6308 120.663C63.7961 120.99 62.992 121.274 62.2763 121.513C61.9986 121.606 61.7331 121.692 61.4859 121.771C60.2408 122.166 59.4138 122.381 59.4138 122.381C59.2249 122.341 59.0315 122.325 58.8386 122.334C58.7852 122.334 58.7302 122.334 58.6738 122.334C58.4154 122.353 58.1581 122.385 57.9032 122.431C56.1988 122.736 53.791 123.592 52.3399 124.152C51.577 124.443 51.081 124.652 51.081 124.652L50.1106 124.945L49.9489 124.994C48.8975 125.314 47.419 125.769 46.8864 125.958C46.0258 126.263 38.5537 127.817 38.5537 127.817C37.871 128.004 37.1737 128.131 36.4693 128.199C34.7336 128.358 32.989 128.398 31.2478 128.318C29.4992 128.431 26.6702 128.046 25.0238 127.787L24.7613 127.746C24.1251 127.642 23.7207 127.567 23.7207 127.567L23.9343 127.273L28.3151 121.231L28.341 121.194L32.4227 115.567L32.5753 115.363L32.9461 114.852C32.9461 114.852 33.1689 114.547 34.0264 114.527C34.1271 114.527 34.237 114.527 34.3575 114.527C35.0778 114.585 35.7885 114.73 36.4739 114.959L36.6723 115.018C39.6279 115.865 44.1963 115.653 44.1963 115.653C44.1963 115.653 47.039 115.195 49.2729 114.92L49.4392 114.899C50.1692 114.796 50.9042 114.732 51.641 114.708C53.0021 114.736 55.947 114.014 55.947 114.014C56.5803 113.879 56.8473 113.764 57.2044 113.51C57.2517 113.476 57.302 113.439 57.3569 113.4C57.5095 113.285 57.685 113.145 57.9108 112.971C58.3228 112.655 58.9011 112.227 59.8105 111.626C59.8899 111.574 59.9738 111.522 60.0638 111.473C60.1539 111.424 60.2683 111.359 60.3782 111.304C61.2589 110.887 62.1874 110.58 63.143 110.389C63.9357 110.218 64.7401 110.108 65.5493 110.058H65.6699C67.9587 109.936 70.2963 110.328 71.6635 111.614C71.9025 111.839 72.1108 112.096 72.283 112.376C72.3665 112.509 72.441 112.648 72.5058 112.791C72.6305 113.064 72.7232 113.351 72.7819 113.645C72.7931 113.7 72.8023 113.755 72.8094 113.81C72.8094 113.827 72.8094 113.842 72.8094 113.859C72.8094 113.903 72.8186 113.947 72.8216 113.992C72.9437 115.817 71.0486 117.468 68.6468 118.81Z" fill="black"/>
<path d="M23.7207 127.239C23.7207 127.239 28.6645 128.154 31.2478 127.988C31.2478 127.988 35.9978 128.238 38.5537 127.489C38.5537 127.489 46.0304 125.933 46.8865 125.628C47.7425 125.323 51.0811 124.323 51.0811 124.323C51.0811 124.323 57.5813 121.601 59.4138 122.045C59.4138 122.045 73.8028 118.325 72.7744 113.299C71.7459 108.273 62.6639 109.412 59.8045 111.299C56.945 113.186 57.3631 113.383 55.944 113.688C55.944 113.688 52.9991 114.409 51.638 114.382C50.2769 114.354 44.1933 115.326 44.1933 115.326C44.1933 115.326 39.4158 115.549 36.4724 114.632C33.529 113.715 32.9446 114.521 32.9446 114.521L23.7207 127.239Z" fill="#FFA2A2"/>
<path opacity="0.1" d="M34.4416 114.194C34.4423 114.2 34.4423 114.206 34.4416 114.212C34.4309 114.326 34.4016 114.436 34.3546 114.54C33.7687 115.977 30.4423 119.853 30.4423 119.853C30.2906 120.314 30.1076 120.763 29.8945 121.198C29.4362 122.129 28.9082 123.024 28.3152 123.875C27.4362 125.149 26.4765 126.365 25.442 127.517H25.4344C25.3028 127.614 25.1657 127.704 25.0239 127.787C24.6654 128 24.1267 128.264 23.6186 128.296C23.5321 128.301 23.4453 128.299 23.3592 128.288C23.4126 128.288 23.4645 128.276 23.5118 128.267L23.3257 128.212L23.0708 128.133C22.6436 127.999 22.2199 127.852 21.7998 127.692L21.545 127.594C21.1381 127.438 20.7398 127.269 20.3502 127.089L20.0954 126.974C19.6885 126.784 19.2902 126.585 18.9006 126.374C18.7603 126.301 18.6214 126.222 18.4841 126.147C18.069 125.915 17.6621 125.672 17.2634 125.418C16.8402 125.148 16.4262 124.867 16.0213 124.574C15.7162 124.008 15.4644 123.506 15.3271 123.236C15.0768 122.735 15.0554 122.016 15.086 121.496C15.086 121.443 15.086 121.392 15.0951 121.343C15.1211 121.017 15.1607 120.793 15.1607 120.793C14.9346 120.491 14.7307 120.172 14.5504 119.841C14.4468 119.676 14.3879 119.488 14.3795 119.293C14.3864 119.215 14.3792 119.137 14.3581 119.061C14.2406 118.579 13.7356 117.751 13.2687 117.231C12.9208 116.848 12.8994 115.417 12.933 114.403C12.9528 113.793 12.991 113.344 12.991 113.344C12.9226 113.3 12.8714 113.234 12.846 113.157C12.7233 112.823 12.6403 112.476 12.5988 112.123C12.5988 112.072 12.5851 112.022 12.5774 111.97C12.4798 111.27 12.4355 110.567 12.4355 110.567C11.3064 109.744 10.7693 108.462 10.519 107.318L10.487 107.165C10.3496 106.462 10.2912 105.746 10.3131 105.03C10.3131 104.961 10.3131 104.909 10.3131 104.877C10.3131 104.845 10.3131 104.839 10.3131 104.839C10.3131 104.839 10.4626 101.533 10.8807 100.243C10.8975 100.188 10.9158 100.138 10.9341 100.09C10.9649 100.009 11.0048 99.9321 11.0531 99.8601C11.2057 99.6572 11.314 99.2744 11.404 98.8213C11.4666 98.5071 11.5185 98.1578 11.5566 97.81C11.5917 97.5202 11.6192 97.2319 11.6406 96.965C11.7001 96.2511 11.7184 95.6943 11.7184 95.6943L11.4361 94.3032C11.3583 93.9234 11.2988 93.5405 11.2576 93.1577C11.2576 93.1073 11.2454 93.057 11.2393 93.0051C11.1679 92.2981 11.1551 91.5864 11.2011 90.8772C11.2011 90.8254 11.2011 90.775 11.2103 90.7247C11.3294 89.1095 11.7518 87.5312 12.4554 86.0723L12.5317 85.9198C12.6334 85.7164 12.7402 85.5166 12.8521 85.3203C12.933 85.1754 13.0184 85.032 13.1069 84.8902C13.3415 84.5103 13.5962 84.1432 13.8699 83.7904C13.9095 83.7385 13.9507 83.6882 13.9919 83.6378C14.468 83.0477 14.9972 82.5024 15.5727 82.0087C17.1138 80.6847 18.5283 80.1097 19.8131 80.0654C25.4313 79.8671 28.5823 89.8003 29.0919 91.5408C29.1407 91.7086 29.1651 91.8001 29.1651 91.8001C29.1651 91.8001 31.4417 94.0775 30.7749 95.0766C30.6457 95.2965 30.5669 95.5424 30.5445 95.7965C30.3614 97.1404 30.8863 99.3537 30.8863 99.3537C30.8863 99.3537 31.0725 99.9638 31.6157 101.425L31.7759 101.852C32.1162 102.767 32.1955 104.304 32.0002 105.679C31.8125 106.997 31.3716 108.163 30.6651 108.462C29.2201 109.072 29.6092 109.682 29.9418 110.184C30.1395 110.544 30.3044 110.92 30.4347 111.31C30.6437 111.872 30.8375 112.464 30.9107 112.695C30.9321 112.759 30.9428 112.794 30.9428 112.794C31.1452 112.715 31.3554 112.659 31.5699 112.626C31.843 112.588 32.1131 112.615 32.165 112.849C32.1925 112.974 32.3496 113.122 32.5709 113.27C33.227 113.721 34.4416 114.194 34.4416 114.194Z" fill="black"/>
<path d="M34.1102 114.194C34.1008 114.31 34.0714 114.424 34.0232 114.53C33.4403 115.968 30.1109 119.853 30.1109 119.853C29.9585 120.313 29.7755 120.763 29.5631 121.199C29.1949 121.95 28.7784 122.677 28.3164 123.375C27.3599 124.818 26.3002 126.189 25.1457 127.479L25.1106 127.517C25.1106 127.517 24.9763 127.619 24.7627 127.75C24.381 127.994 23.9604 128.17 23.5191 128.272L23.333 128.217L23.0781 128.138C22.6509 128.003 22.2272 127.856 21.8071 127.697L21.5523 127.599C21.1454 127.442 20.7471 127.274 20.3575 127.094L20.1027 126.978C19.6958 126.789 19.2975 126.589 18.9079 126.379C18.7676 126.306 18.6287 126.226 18.4914 126.152C18.0763 125.92 17.6694 125.677 17.2707 125.422C16.8475 125.153 16.4335 124.872 16.0286 124.579C15.8414 124.445 15.6563 124.307 15.4732 124.166C15.2672 123.775 15.1024 123.446 15.0002 123.241C14.7499 122.739 14.7286 122.021 14.7591 121.501C14.7591 121.447 14.7591 121.397 14.7683 121.348C14.7942 121.022 14.8339 120.797 14.8339 120.797C14.8339 120.797 14.7103 120.631 14.5607 120.405C14.4768 120.28 14.3868 120.135 14.3059 119.992C14.1533 119.724 14.0343 119.452 14.0572 119.298C14.0603 119.272 14.0603 119.245 14.0572 119.219C14.0549 119.167 14.0472 119.116 14.0343 119.066C13.9168 118.584 13.4102 117.756 12.9433 117.236C12.5954 116.853 12.5741 115.422 12.6061 114.408C12.6061 114.356 12.6061 114.306 12.6061 114.255C12.6275 113.729 12.6595 113.349 12.6595 113.349C12.4871 113.274 12.3543 112.721 12.2689 112.129L12.246 111.976C12.1483 111.276 12.1041 110.573 12.1041 110.573C10.9749 109.751 10.4378 108.468 10.1891 107.324C10.0158 106.523 9.94915 105.702 9.99076 104.883C9.99076 104.859 9.99076 104.845 9.99076 104.845C9.99076 104.845 10.122 101.523 10.5401 100.231C10.5569 100.176 10.5752 100.126 10.5935 100.078C10.6301 99.9993 10.6757 99.9245 10.7293 99.8557C10.9612 99.5324 11.1153 98.7544 11.216 97.9582L11.2343 97.8056C11.361 96.7379 11.3961 95.69 11.3961 95.69L11.1123 94.2988C11.035 93.9175 10.9755 93.5356 10.9337 93.1533C10.9261 93.1029 10.9215 93.0511 10.9154 93.0007C10.8441 92.2937 10.8313 91.582 10.8773 90.8728C10.8773 90.821 10.8773 90.7706 10.888 90.7203C11.0064 89.105 11.4288 87.5266 12.1331 86.0679C12.1575 86.0161 12.1819 85.9657 12.2094 85.9154C12.4056 85.5192 12.6236 85.1342 12.8624 84.7622C12.9448 84.6326 13.0288 84.5044 13.1173 84.3778C13.2561 84.1765 13.4011 83.9782 13.5521 83.786L13.6742 83.6334C14.1463 83.0456 14.6708 82.5019 15.2413 82.0089C16.9197 80.5705 18.4456 80.0153 19.8189 80.0656C25.2281 80.2593 28.2646 89.8356 28.7635 91.541C28.8124 91.7087 28.8368 91.8003 28.8368 91.8003C28.8368 91.8003 31.1149 94.0776 30.4481 95.0768C30.3188 95.2967 30.2401 95.5426 30.2177 95.7967C30.033 97.1406 30.5595 99.3539 30.5595 99.3539C30.5595 99.3539 30.7456 99.964 31.2888 101.425C31.3377 101.561 31.3911 101.703 31.4414 101.852C31.7817 102.768 31.861 104.304 31.6657 105.68C31.478 106.999 31.0386 108.163 30.3306 108.462C28.8871 109.072 29.2747 109.682 29.6089 110.184C29.8065 110.544 29.9715 110.92 30.1017 111.31C30.3657 112.028 30.6083 112.794 30.6083 112.794C30.7082 112.755 30.81 112.722 30.9135 112.695C31.1257 112.625 31.3505 112.602 31.5726 112.626C31.6341 112.631 31.6925 112.655 31.7394 112.695C31.7862 112.735 31.8192 112.789 31.8336 112.849C31.8748 113.032 32.1906 113.259 32.5736 113.474C33.0709 113.745 33.584 113.985 34.1102 114.194Z" fill="#CED7E7"/>
<path opacity="0.1" d="M14.0256 99.5263C14.5536 99.4988 20.2207 97.3054 21.3879 98.0543C22.5552 98.8033 29.7802 103.663 29.7802 103.663C29.7802 103.663 25.253 97.7492 21.3086 96.3612C17.3642 94.9731 14.0256 99.5263 14.0256 99.5263Z" fill="black"/>
<path opacity="0.1" d="M22.1724 108.468C22.1724 108.468 27.8394 109.606 28.7 110.384L22.1724 108.468Z" fill="black"/>
<path opacity="0.1" d="M21.0822 116.939C20.9998 117.023 18.9459 121.631 19.1107 121.631C19.2755 121.631 21.0272 118.885 21.0272 118.885L21.0822 116.939Z" fill="black"/>
<path opacity="0.1" d="M24.944 111.41C24.944 111.41 23.2777 111.995 23.4715 112.05C23.6653 112.104 24.8875 111.661 24.944 111.41Z" fill="black"/>
<path opacity="0.1" d="M23.2781 118.381C23.5558 118.964 24.4438 120.714 24.6392 120.436C24.8345 120.158 23.2781 118.381 23.2781 118.381Z" fill="black"/>
<path opacity="0.1" d="M44.0774 72.1962L43.8394 72.5349C43.8394 72.5349 41.9488 71.2032 41.1722 70.5367C40.3955 69.8701 38.5614 72.9238 37.1164 73.7567C35.6714 74.5895 33.2285 74.8123 33.2285 74.8123C33.2285 74.8123 31.3395 72.9238 31.3975 72.3717C31.4554 71.8195 30.5094 71.6502 30.4529 71.2612C30.3965 70.8722 30.0638 69.7618 29.6198 69.2065C29.3848 68.9137 29.3513 67.9969 29.3726 67.1991C29.5252 67.1686 29.6198 67.1519 29.6198 67.1519C29.857 66.7211 30.1568 66.3278 30.5094 65.985C31.0099 65.5411 31.7865 62.8198 31.7865 62.8198C32.2306 61.3204 33.1186 61.7643 33.1186 61.7643C33.1186 64.0416 35.4532 64.8745 36.619 65.8187C37.7847 66.7629 39.6188 69.2065 41.0638 69.7069C42.2494 70.1111 43.6364 71.6746 44.0774 72.1962Z" fill="black"/>
<path d="M44.0782 71.8625L43.8402 72.2026C43.8402 72.2026 41.942 70.874 41.1653 70.2029C40.3887 69.5317 38.5546 72.5901 37.1096 73.4229C35.6646 74.2558 33.2217 74.48 33.2217 74.48C33.2217 74.48 31.3326 72.5901 31.3906 72.0394C31.4486 71.4888 30.5026 71.3179 30.4461 70.9274C30.3896 70.5369 30.057 69.428 29.613 68.8727C29.378 68.5799 29.3444 67.6631 29.3658 66.8654L29.613 66.8196C29.8501 66.3888 30.1499 65.9955 30.5026 65.6527C31.003 65.2073 31.7797 62.4876 31.7797 62.4876C32.2237 60.9881 33.1118 61.4305 33.1118 61.4305C33.1118 63.7079 35.4464 64.5422 36.6121 65.4864C37.7779 66.4306 39.612 68.8727 41.057 69.3731C42.2502 69.7834 43.6372 71.3408 44.0782 71.8625Z" fill="#CED7E7"/>
<path opacity="0.1" d="M44.2201 72.314C44.2201 72.314 42.5829 73.2017 41.3042 73.2856C41.1368 73.2934 40.9691 73.2837 40.8037 73.2567C40.8037 73.2567 42.2151 72.2026 43.5259 71.9875L44.2201 72.314Z" fill="black"/>
<path opacity="0.1" d="M47.5544 76.8387C47.5544 76.8387 45.4899 76.0348 44.8079 77.2444C44.8307 76.6892 44.8399 76.2285 44.8399 76.2285L47.0906 75.7831C47.0906 75.7831 47.3072 76.1843 47.5605 76.7243C47.5544 76.796 47.5544 76.8387 47.5544 76.8387Z" fill="black"/>
<path d="M40.8037 73.2567C40.8037 73.2567 43.2771 71.7725 44.4658 71.8976C45.7124 72.0273 48.1279 72.1188 48.1279 72.1188C48.1279 72.1188 47.2948 74.0072 47.4061 74.3962C47.5175 74.7851 47.545 76.6735 47.545 76.6735C47.545 76.6735 45.0456 75.7019 44.6291 77.5064C44.6291 77.5064 43.268 75.4792 42.3509 74.8675C41.7424 74.428 41.2183 73.8823 40.8037 73.2567Z" fill="#63667E"/>
<path opacity="0.1" d="M54.7751 74.9797C54.0534 74.9797 51.4976 73.3674 50.9422 72.3133C50.3867 71.2593 49.6086 72.4232 48.8868 72.8137C48.4291 73.0638 46.6148 72.5406 45.6367 72.1608C46.1326 71.8237 47.2313 70.8749 47.5532 70.6476C47.9408 70.3685 48.3314 65.8702 48.3314 65.8702C49.7199 65.1487 51.2199 71.7017 51.2199 71.7017C51.2199 71.7017 53.8322 72.4796 54.0534 73.0348C54.0961 73.1447 54.293 73.3399 54.589 73.5763C54.8942 74.3451 55.062 74.9797 54.7751 74.9797Z" fill="black"/>
<path d="M54.7756 74.6453C54.0539 74.6453 51.4981 73.0345 50.9427 71.9805C50.3872 70.9264 49.609 72.0903 48.8873 72.4792C48.4295 72.7294 46.9754 72.2459 45.9973 71.8691C46.4932 71.5335 47.2317 70.5451 47.5537 70.3163C47.9413 70.0387 48.3319 65.5404 48.3319 65.5404C49.7204 64.8189 51.2204 71.3718 51.2204 71.3718C51.2204 71.3718 53.8327 72.1498 54.0539 72.705C54.0966 72.8148 54.2935 73.0101 54.5895 73.2465C54.8947 74.0107 55.0625 74.6453 54.7756 74.6453Z" fill="#CED7E7"/>
<path d="M64.6465 123.301L88.8025 103.166C89.0435 102.962 89.3507 102.854 89.6661 102.861L98.6779 103.097C98.6779 103.097 99.302 103.555 98.3865 104.555L75.5992 123.249C75.3529 123.45 75.0473 123.565 74.7294 123.575L64.8754 123.902C64.8046 123.904 64.7349 123.884 64.676 123.845C64.6171 123.805 64.5719 123.749 64.5467 123.683C64.5215 123.616 64.5176 123.544 64.5355 123.476C64.5533 123.407 64.5921 123.346 64.6465 123.301Z" fill="#B338FF"/>
<path d="M76.3318 120.823C76.3318 120.823 81.6082 128.377 87.4706 121.351C93.333 114.325 91.6378 110.633 89.8601 110.438C88.0825 110.243 78.0804 117.935 76.3318 120.823Z" fill="#FFA2A2"/>
<path opacity="0.1" d="M111.92 36.3392C111.92 36.3392 118.72 23.1448 126.759 29.9494C126.759 29.9494 128.513 30.5886 128.381 32.4434C128.381 32.4434 127.705 32.0728 127.168 33.4898C126.97 33.9926 126.714 34.4704 126.405 34.913C125.993 35.511 125.399 35.9595 124.711 36.1913C124.711 36.1913 121.104 38.8927 114.422 36.809C114.422 36.809 112.533 37.0805 112.228 36.8456L114.424 35.241C114.424 35.241 115.539 36.896 117.17 37.0851C117.17 37.0851 114.424 35.3615 114.738 34.9877C114.802 34.9115 115.94 34.19 115.94 34.19C115.94 34.19 117.892 37.0592 120.422 37.2712C120.422 37.2712 116.877 35.6559 116.369 33.9154L118.15 32.9224C118.15 32.9224 120.063 36.057 122.936 36.4079C122.936 36.4079 119.29 34.5911 118.554 32.7317L120.439 31.9965C120.439 31.9965 122.366 35.0167 124.757 35.2928C124.757 35.2928 120.756 32.7683 120.881 31.8562C120.881 31.8562 122.653 31.2857 123.196 31.3604C123.196 31.3604 124.629 33.4959 126.032 33.5341C126.032 33.5341 123.538 31.5633 123.702 31.2597C123.702 31.2597 126.208 31.1301 127.517 31.7357C127.517 31.7357 125.656 30.6999 123.702 30.8677C123.702 30.8677 124.586 29.8289 125.738 29.6001C125.738 29.6001 124.357 29.0327 123.095 30.9059C123.095 30.9059 121.147 31.0843 120.906 31.3009C120.906 31.3009 121.891 29.2752 123.104 28.4134C123.104 28.4134 121.296 28.7322 120.4 31.4779L118.49 32.175C118.49 32.175 119.651 29.4293 120.675 28.5812C120.675 28.5812 118.881 29.1913 118.023 32.3946L116.265 33.3495C116.265 33.3495 117.085 30.9089 118.02 29.7176C118.02 29.7176 116.477 30.642 115.771 33.6408L114.672 34.4142C114.672 34.4142 115.303 32.6417 115.53 32.149C115.757 31.6563 115.643 31.5541 115.643 31.5541C114.879 32.4567 114.381 33.5535 114.204 34.7223C114.204 34.7223 112.046 36.4612 111.92 36.3392Z" fill="#B338FF"/>
<path opacity="0.1" d="M140.046 43.3947C140.046 43.3947 143.119 37.4321 146.751 40.5072C146.751 40.5072 147.544 40.7955 147.483 41.6329C147.483 41.6329 147.178 41.4667 146.935 42.1073C146.848 42.3343 146.733 42.5498 146.594 42.7495C146.408 43.019 146.14 43.2217 145.831 43.3276C145.831 43.3276 144.2 44.5479 141.18 43.6068C141.18 43.6068 140.327 43.7288 140.19 43.6236L141.181 42.8975C141.181 42.8975 141.685 43.6464 142.423 43.7303C142.423 43.7303 141.184 42.9524 141.325 42.7831C141.352 42.7495 141.867 42.4231 141.867 42.4231C141.867 42.4231 142.748 43.7196 143.893 43.8157C143.893 43.8157 142.291 43.0851 142.062 42.2904L142.867 41.8434C142.867 41.8434 143.731 43.2605 145.03 43.4192C145.03 43.4192 143.382 42.5985 143.046 41.758L143.897 41.4255C143.897 41.4255 144.767 42.7907 145.847 42.9158C145.847 42.9158 144.039 41.7748 144.097 41.363C144.097 41.363 144.897 41.1052 145.143 41.1387C145.143 41.1387 145.79 42.1043 146.424 42.1195C146.424 42.1195 145.297 41.2302 145.371 41.093C145.371 41.093 146.504 41.035 147.093 41.308C147.093 41.308 146.252 40.8398 145.371 40.916C145.614 40.6399 145.932 40.4406 146.287 40.3425C146.287 40.3425 145.663 40.0862 145.092 40.9328C145.092 40.9328 144.212 41.0136 144.103 41.1113C144.103 41.1113 144.549 40.196 145.097 39.8071C145.097 39.8071 144.279 39.9505 143.876 41.1921L143.022 41.5124C143.022 41.5124 143.545 40.2723 144.009 39.8879C144.009 39.8879 143.197 40.164 142.809 41.6101L142.016 42.0402C142.016 42.0402 142.385 40.9359 142.808 40.3989C142.808 40.3989 142.111 40.8169 141.793 42.1714L141.296 42.5207C141.296 42.5207 141.581 41.7199 141.683 41.4972C141.786 41.2745 141.734 41.2287 141.734 41.2287C141.389 41.638 141.164 42.1348 141.084 42.6641C141.084 42.6641 140.1 43.4497 140.046 43.3947Z" fill="#B338FF"/>
<path opacity="0.1" d="M106.747 50.3332C106.747 50.3332 109.82 44.3706 113.46 47.4457C113.46 47.4457 114.252 47.734 114.193 48.5729C114.193 48.5729 113.888 48.4052 113.645 49.0458C113.557 49.2725 113.442 49.488 113.303 49.688C113.116 49.9588 112.845 50.1616 112.533 50.2661C112.533 50.2661 110.903 51.4864 107.883 50.5452C107.883 50.5452 107.03 50.6688 106.893 50.562L107.885 49.836C107.885 49.836 108.388 50.5849 109.125 50.6703C109.125 50.6703 107.886 49.8909 108.027 49.7215C108.056 49.688 108.57 49.3616 108.57 49.3616C108.57 49.3616 109.452 50.6581 110.595 50.7542C110.595 50.7542 108.994 50.0236 108.764 49.2289L109.569 48.7834C109.569 48.7834 110.435 50.199 111.733 50.3576C111.733 50.3576 110.085 49.537 109.749 48.6965L110.601 48.364C110.601 48.364 111.472 49.7292 112.553 49.8543C112.553 49.8543 110.744 48.7133 110.801 48.3014C110.801 48.3014 111.602 48.0436 111.848 48.0772C111.848 48.0772 112.495 49.0428 113.129 49.0595C113.129 49.0595 112.002 48.1687 112.076 48.0314C112.076 48.0314 113.207 47.9735 113.798 48.2465C113.798 48.2465 112.955 47.7782 112.075 47.8545C112.318 47.5784 112.636 47.379 112.99 47.281C112.99 47.281 112.368 47.0247 111.797 47.8713C111.797 47.8713 110.917 47.9521 110.808 48.0497C110.808 48.0497 111.252 47.1345 111.802 46.7456C111.802 46.7456 110.984 46.8889 110.581 48.1306L109.716 48.4509C109.716 48.4509 110.241 47.2108 110.703 46.8279C110.703 46.8279 109.893 47.1025 109.505 48.5485L108.71 48.9787C108.71 48.9787 109.081 47.8743 109.504 47.3374C109.504 47.3374 108.807 47.7553 108.488 49.1099L107.99 49.4592C107.99 49.4592 108.276 48.6584 108.378 48.4357C108.48 48.213 108.43 48.1672 108.43 48.1672C108.084 48.576 107.859 49.0731 107.78 49.6026C107.78 49.6026 106.8 50.3881 106.747 50.3332Z" fill="#B338FF"/>
</svg>
