<svg width="182" height="175" viewBox="0 0 182 175" fill="none" xmlns="http://www.w3.org/2000/svg">
<g clip-path="url(#clip0_357_1976)">
<path d="M5.95352 108.225C5.92529 108.192 5.90526 108.152 5.89506 108.11C2.0948 92.3362 2.73373 75.8114 7.74045 60.3817C12.7472 44.9519 21.9245 31.2249 34.2471 20.7344C46.5697 10.2438 61.5522 3.40282 77.5208 0.975748C93.4893 -1.45132 109.815 0.631104 124.674 6.99037C124.707 7.00471 124.738 7.02555 124.763 7.0517C124.789 7.07786 124.809 7.10881 124.822 7.1428C124.836 7.17679 124.843 7.21314 124.843 7.24979C124.842 7.28643 124.835 7.32265 124.82 7.35638C124.806 7.3901 124.785 7.42068 124.759 7.44635C124.733 7.47202 124.703 7.49229 124.669 7.506C124.635 7.51971 124.599 7.52658 124.562 7.52624C124.526 7.5259 124.49 7.51835 124.456 7.50401C94.0567 -5.48579 59.5614 -0.191894 34.4319 21.3199C9.45584 42.7003 -1.27186 75.9059 6.43517 107.979C6.44984 108.04 6.44362 108.104 6.41749 108.161C6.39136 108.218 6.34685 108.265 6.29116 108.293C6.23548 108.321 6.17186 108.33 6.11059 108.318C6.04933 108.306 5.99399 108.273 5.95352 108.225Z" fill="#E6E6E6"/>
<path d="M56.725 168.119C56.6844 168.071 56.661 168.011 56.6587 167.948C56.6563 167.885 56.675 167.823 56.7119 167.773C56.7487 167.722 56.8016 167.685 56.8618 167.668C56.922 167.652 56.9861 167.656 57.0437 167.68C87.329 180.426 121.658 175.061 146.635 153.68C172.001 131.966 182.773 98.5878 174.747 66.5707C174.738 66.5351 174.736 66.4982 174.741 66.4619C174.747 66.4257 174.759 66.3908 174.778 66.3593C174.797 66.3279 174.821 66.3004 174.851 66.2786C174.88 66.2567 174.913 66.2409 174.948 66.2319C174.984 66.223 175.021 66.2211 175.057 66.2265C175.093 66.2318 175.128 66.2443 175.159 66.2631C175.19 66.2819 175.217 66.3067 175.239 66.3362C175.261 66.3656 175.277 66.399 175.286 66.4346C179.18 81.9927 178.686 98.3333 173.859 113.625C168.862 129.384 159.552 143.412 146.995 154.105C134.734 164.606 119.814 171.483 103.896 173.971C87.9772 176.458 71.6839 174.459 56.8288 168.195C56.7888 168.178 56.7532 168.152 56.725 168.119Z" fill="#E6E6E6"/>
<path d="M50.3064 173.073C50.2827 173.045 50.2647 173.012 50.2535 172.978C50.2423 172.943 50.238 172.906 50.2409 172.869C50.2438 172.833 50.2538 172.797 50.2704 172.765C50.2871 172.732 50.3099 172.703 50.3377 172.679L181.542 60.3634C181.598 60.3154 181.671 60.2917 181.744 60.2976C181.818 60.3035 181.886 60.3385 181.934 60.3949C181.981 60.4512 182.005 60.5243 181.999 60.5981C181.993 60.6719 181.958 60.7403 181.902 60.7883L50.6979 173.104C50.6701 173.128 50.638 173.146 50.6033 173.157C50.5686 173.169 50.532 173.173 50.4956 173.17C50.4593 173.167 50.4238 173.157 50.3914 173.14C50.3589 173.123 50.33 173.101 50.3064 173.073Z" fill="#E6E6E6"/>
<path d="M0.0663396 113.807C0.0426797 113.779 0.0247241 113.746 0.0134929 113.712C0.00226177 113.677 -0.00202465 113.64 0.000883916 113.603C0.00379248 113.567 0.0138373 113.531 0.0304425 113.499C0.0470477 113.466 0.0698894 113.437 0.0976616 113.413L131.302 1.09746C131.358 1.04955 131.431 1.02597 131.504 1.03191C131.578 1.03784 131.646 1.07281 131.693 1.12912C131.741 1.18543 131.765 1.25848 131.759 1.33222C131.753 1.40596 131.718 1.47435 131.662 1.52238L0.457867 113.838C0.430107 113.862 0.397957 113.88 0.363254 113.891C0.32855 113.903 0.291975 113.907 0.255615 113.904C0.219256 113.901 0.183829 113.891 0.151352 113.874C0.118876 113.858 0.0899857 113.835 0.0663396 113.807Z" fill="#E6E6E6"/>
<path d="M50.3064 173.073C50.2827 173.045 50.2647 173.012 50.2535 172.978C50.2423 172.943 50.238 172.906 50.2409 172.869C50.2438 172.833 50.2538 172.797 50.2704 172.765C50.2871 172.732 50.3099 172.703 50.3377 172.679L181.542 60.3634C181.598 60.3154 181.671 60.2917 181.744 60.2976C181.818 60.3035 181.886 60.3385 181.934 60.3949C181.981 60.4512 182.005 60.5243 181.999 60.5981C181.993 60.6719 181.958 60.7403 181.902 60.7883L50.6979 173.104C50.6701 173.128 50.638 173.146 50.6033 173.157C50.5686 173.169 50.532 173.173 50.4956 173.17C50.4593 173.167 50.4238 173.157 50.3914 173.14C50.3589 173.123 50.33 173.101 50.3064 173.073Z" fill="#E6E6E6"/>
<path d="M153.398 46.2927H102.617V46.0255C102.617 45.8174 102.535 45.6178 102.389 45.4707C102.242 45.3236 102.044 45.2409 101.837 45.2409H80.3724C80.1654 45.2409 79.9668 45.3236 79.8204 45.4707C79.674 45.6178 79.5917 45.8174 79.5917 46.0255V46.2927H28.6021C27.6911 46.2927 26.8175 46.6563 26.1733 47.3037C25.5291 47.951 25.1672 48.8289 25.1672 49.7444V119.619C25.1672 120.534 25.5291 121.412 26.1733 122.06C26.8175 122.707 27.6911 123.071 28.6021 123.071H153.398C154.309 123.071 155.182 122.707 155.826 122.06C156.471 121.412 156.833 120.534 156.833 119.619V49.7444C156.833 48.8289 156.471 47.951 155.827 47.3037C155.182 46.6563 154.309 46.2927 153.398 46.2927Z" fill="#3F3D56"/>
<path d="M31.3338 53.6389C31.2486 53.639 31.1669 53.6731 31.1067 53.7337C31.0464 53.7943 31.0125 53.8764 31.0125 53.962V120.24C31.0125 120.325 31.0464 120.407 31.1067 120.468C31.1669 120.528 31.2486 120.563 31.3338 120.563H150.666C150.751 120.563 150.833 120.529 150.893 120.468C150.953 120.407 150.987 120.325 150.987 120.24V53.962C150.987 53.8764 150.953 53.7942 150.893 53.7337C150.833 53.6731 150.751 53.639 150.666 53.6389H31.3338Z" fill="#B338FF"/>
<path d="M90.8954 50.4997C91.589 50.4997 92.1513 49.9346 92.1513 49.2376C92.1513 48.5405 91.589 47.9755 90.8954 47.9755C90.2017 47.9755 89.6394 48.5405 89.6394 49.2376C89.6394 49.9346 90.2017 50.4997 90.8954 50.4997Z" fill="#B338FF"/>
<path d="M159.12 118.361H147.169V117.121C147.169 117.053 147.092 116.998 146.998 116.998H142.901C142.806 116.998 142.73 117.053 142.73 117.121V118.361H140.169V117.121C140.169 117.053 140.093 116.998 139.998 116.998H135.901C135.807 116.998 135.73 117.053 135.73 117.121V118.361H133.169V117.121C133.169 117.053 133.093 116.998 132.999 116.998H128.901C128.807 116.998 128.73 117.053 128.73 117.121V118.361H126.17V117.121C126.17 117.053 126.093 116.998 125.999 116.998H121.901C121.807 116.998 121.731 117.053 121.731 117.121V118.361H119.17V117.121C119.17 117.053 119.093 116.998 118.999 116.998H114.902C114.807 116.998 114.731 117.053 114.731 117.121V118.361H112.17V117.121C112.17 117.053 112.094 116.998 111.999 116.998H107.902C107.808 116.998 107.731 117.053 107.731 117.121V118.361H105.17V117.121C105.17 117.053 105.094 116.998 105 116.998H72.9031C72.8088 116.998 72.7324 117.053 72.7324 117.121V118.361H70.1715V117.121C70.1715 117.053 70.095 116.998 70.0008 116.998H65.9033C65.809 116.998 65.7326 117.053 65.7326 117.121V118.361H63.1717V117.121C63.1717 117.053 63.0953 116.998 63.001 116.998H58.9036C58.8093 116.998 58.7328 117.053 58.7328 117.121V118.361H56.172V117.121C56.172 117.053 56.0955 116.998 56.0012 116.998H51.9038C51.8095 116.998 51.7331 117.053 51.7331 117.121V118.361H49.1722V117.121C49.1722 117.053 49.0957 116.998 49.0015 116.998H44.904C44.8097 116.998 44.7333 117.053 44.7333 117.121V118.361H42.1724V117.121C42.1724 117.053 42.096 116.998 42.0017 116.998H37.9043C37.81 116.998 37.7335 117.053 37.7335 117.121V118.361H35.1726V117.121C35.1726 117.053 35.0962 116.998 35.0019 116.998H30.9045C30.8102 116.998 30.7338 117.053 30.7338 117.121V118.361H22.8804C20.6174 118.361 18.783 119.687 18.783 121.321V122.66C18.783 124.294 20.6174 125.62 22.8804 125.62H159.12C161.383 125.62 163.217 124.294 163.217 122.66V121.321C163.217 119.687 161.383 118.361 159.12 118.361Z" fill="#3F3D56"/>
<path d="M77.1065 81.523H41.8346C41.761 81.523 41.6903 81.4936 41.6382 81.4412C41.5861 81.3889 41.5569 81.3179 41.5569 81.2439C41.5569 81.1699 41.5861 81.0989 41.6382 81.0465C41.6903 80.9942 41.761 80.9648 41.8346 80.9648H77.1065C77.1802 80.9648 77.2508 80.9942 77.3029 81.0465C77.355 81.0989 77.3842 81.1699 77.3842 81.2439C77.3842 81.3179 77.355 81.3889 77.3029 81.4412C77.2508 81.4936 77.1802 81.523 77.1065 81.523Z" fill="#F2F2F2"/>
<path d="M77.1065 87.663H41.8346C41.761 87.663 41.6903 87.6336 41.6382 87.5813C41.5861 87.529 41.5569 87.458 41.5569 87.384C41.5569 87.3099 41.5861 87.2389 41.6382 87.1866C41.6903 87.1343 41.761 87.1049 41.8346 87.1049H77.1065C77.1802 87.1049 77.2508 87.1343 77.3029 87.1866C77.355 87.2389 77.3842 87.3099 77.3842 87.384C77.3842 87.458 77.355 87.529 77.3029 87.5813C77.2508 87.6336 77.1802 87.663 77.1065 87.663Z" fill="#F2F2F2"/>
<path d="M77.1064 93.8031H41.8345C41.7979 93.8032 41.7617 93.796 41.7279 93.7821C41.6941 93.7681 41.6634 93.7475 41.6375 93.7216C41.6117 93.6957 41.5911 93.6649 41.5771 93.631C41.5631 93.597 41.5559 93.5607 41.5559 93.524C41.5559 93.4872 41.5631 93.4509 41.5771 93.417C41.5911 93.3831 41.6117 93.3522 41.6375 93.3263C41.6634 93.3004 41.6941 93.2799 41.7279 93.2659C41.7617 93.2519 41.7979 93.2448 41.8345 93.2449H77.1064C77.1429 93.2448 77.1791 93.2519 77.2129 93.2659C77.2467 93.2799 77.2774 93.3004 77.3033 93.3263C77.3292 93.3522 77.3497 93.3831 77.3637 93.417C77.3777 93.4509 77.3849 93.4872 77.3849 93.524C77.3849 93.5607 77.3777 93.597 77.3637 93.631C77.3497 93.6649 77.3292 93.6957 77.3033 93.7216C77.2774 93.7475 77.2467 93.7681 77.2129 93.7821C77.1791 93.796 77.1429 93.8032 77.1064 93.8031Z" fill="#F2F2F2"/>
<path d="M136.958 65.4751H93.3537C92.8935 65.4751 92.5205 65.85 92.5205 66.3124V108.455C92.5205 108.918 92.8935 109.293 93.3537 109.293H136.958C137.418 109.293 137.791 108.918 137.791 108.455V66.3124C137.791 65.85 137.418 65.4751 136.958 65.4751Z" fill="white"/>
<path d="M128.446 96.6121L105.982 74.037C105.744 73.7988 105.518 73.6403 105.475 73.6831L101.596 77.5814C101.553 77.6241 101.711 77.8519 101.948 78.0902L124.413 100.665C124.65 100.903 124.877 101.062 124.919 101.019L128.799 97.1209C128.841 97.0781 128.684 96.8503 128.446 96.6121Z" fill="#B338FF"/>
<path d="M124.413 74.037L101.948 96.6121C101.711 96.8503 101.554 97.0781 101.596 97.1209L105.475 101.019C105.518 101.062 105.745 100.903 105.982 100.665L128.447 78.0902C128.684 77.8519 128.841 77.6241 128.799 77.5814L124.92 73.6831C124.877 73.6403 124.65 73.7988 124.413 74.037Z" fill="#B338FF"/>
</g>
<defs>
<clipPath id="clip0_357_1976">
<rect width="182" height="175" fill="white"/>
</clipPath>
</defs>
</svg>
