<svg width="202" height="175" viewBox="0 0 202 175" fill="none" xmlns="http://www.w3.org/2000/svg">
<path d="M23.7537 168.026C25.062 168.026 26.1225 166.963 26.1225 165.652C26.1225 164.341 25.062 163.278 23.7537 163.278C22.4454 163.278 21.3848 164.341 21.3848 165.652C21.3848 166.963 22.4454 168.026 23.7537 168.026Z" fill="#3F3D56"/>
<path d="M18.4097 97.2466C18.6081 96.5741 18.9416 96.0022 19.3358 95.596L20.8224 89.0695L23.9003 89.8694L22.0608 96.4037C22.1711 96.9595 22.1407 97.6211 21.9423 98.2937C21.4889 99.8301 20.3306 100.841 19.3551 100.552C18.3796 100.263 17.9563 98.783 18.4097 97.2466Z" fill="#FFB6B6"/>
<path d="M48.0325 160.704L45.1195 160.773L43.4958 147.657L47.7946 147.555L48.0325 160.704Z" fill="#FFB6B6"/>
<path d="M38.0383 166.795C38.0383 167.288 38.3875 167.688 38.8183 167.688H44.6002C44.6002 167.688 45.1692 165.396 47.489 164.409L47.6491 167.688H50.6318L50.2704 162.416C50.2704 162.416 51.0683 159.595 49.4113 158.153C47.7542 156.711 49.0964 156.912 49.0964 156.912L48.4445 153.649L43.9374 154.18L43.9042 159.302L41.717 164.387L38.5088 165.975C38.2232 166.117 38.0384 166.439 38.0384 166.795L38.0383 166.795H38.0383Z" fill="#30004E"/>
<path d="M28.8762 157.275L25.9633 157.344L24.3396 144.228L28.6383 144.126L28.8762 157.275Z" fill="#FFB6B6"/>
<path d="M18.8821 163.366C18.8821 163.859 19.2313 164.259 19.6621 164.259H25.4439C25.4439 164.259 26.0129 161.966 28.3328 160.98L28.4929 164.259H31.4755L31.1141 158.986C31.1141 158.986 31.912 156.166 30.255 154.724C28.598 153.282 29.9401 153.483 29.9401 153.483L29.2883 150.22L24.7811 150.751L24.748 155.873L22.5607 160.958L19.3525 162.546C19.067 162.687 18.8821 163.01 18.8821 163.366L18.8821 163.366H18.8821Z" fill="#30004E"/>
<path d="M47.1291 56.148L36.6389 57.9765C35.9162 56.1226 31.0642 43.5449 30.7645 41.7298C29.9854 37.0108 33.4959 32.6602 38.255 32.3042H38.255C42.8196 31.9628 45.6004 32.8195 45.9889 37.1772C46.125 38.7045 47.4328 42.7962 47.8325 44.2764C50.0374 52.4428 47.6565 54.4078 47.1291 56.148H47.1291Z" fill="#30004E"/>
<path d="M30.0256 82.8894L29.3414 93.4033L22.842 125.745L23.2981 148.373L29.2274 147.459L31.0518 126.659L41.3472 103.232L42.6822 151.801L49.0676 152.03L53.5551 94.9911C53.898 90.6329 52.7584 86.2869 50.3219 82.6608V82.6608L30.0256 82.8894V82.8894Z" fill="#30004E"/>
<path d="M43.2525 49.0613H34.883L32.9904 52.0327L26.377 54.7754L30.0257 80.8317L29.1135 92.0313C34.2694 93.7847 46.2345 96.4986 54.8888 89.3359L47.1293 75.3461L48.9537 55.6897L45.419 52.4664L43.2525 49.0613L43.2525 49.0613Z" fill="#B338FF"/>
<path d="M31.5092 53.9753C31.5092 53.9753 27.6324 52.3754 25.808 55.3467C24.8152 56.9637 22.9444 68.0567 21.4453 77.8335C20.1896 86.0226 19.1946 93.2883 19.1946 93.2883L23.1854 93.8597L27.6437 77.8641L31.0531 65.6321L31.5092 53.9753Z" fill="#B338FF"/>
<path d="M38.6233 47.5838C42.1157 47.5838 44.9468 44.7462 44.9468 41.246C44.9468 37.7457 42.1157 34.9082 38.6233 34.9082C35.1309 34.9082 32.2998 37.7457 32.2998 41.246C32.2998 44.7462 35.1309 47.5838 38.6233 47.5838Z" fill="#FFB6B6"/>
<path d="M140.598 160.094L143.742 161.823L151.892 150.491L147.252 147.94L140.598 160.094Z" fill="#FFB6B6"/>
<path d="M151.409 165.949C151.417 166.168 151.176 166.73 151.071 166.922C150.748 167.513 150.008 167.729 149.418 167.405L139.682 162.049C139.28 161.828 139.133 161.322 139.353 160.919L139.576 160.513C139.576 160.513 139.763 159.027 141.578 158.068C141.578 158.068 142.166 159.924 145.018 159.091L146.101 158.404L148.454 163.447L150.486 164.915C150.931 165.236 151.391 165.4 151.409 165.949L151.409 165.949Z" fill="#30004E"/>
<path d="M147.048 165.449L150.634 165.449L152.34 151.585L147.047 151.585L147.048 165.449Z" fill="#FFB6B6"/>
<path d="M159.336 165.368C159.448 165.556 159.507 166.165 159.507 166.384C159.507 167.058 158.962 167.604 158.29 167.604H147.183C146.725 167.604 146.353 167.231 146.353 166.772V166.308C146.353 166.308 145.803 164.915 146.935 163.198C146.935 163.198 148.341 164.543 150.441 162.437L151.061 161.312L155.545 164.599L158.031 164.906C158.574 164.973 159.056 164.896 159.336 165.368H159.336Z" fill="#30004E"/>
<path d="M149.675 89.8499L148.188 100.25L146.254 157.048H153.049L160.393 104.707V132.201L144.886 149.048L149.802 152.476L170.518 132.993L174.304 95.5639L171.34 90.0784L149.675 89.8499Z" fill="#30004E"/>
<path d="M165.526 48.5871L159.121 48.2968L157.088 51.5584L148.63 55.7587L149.79 80.8146L147.51 92.2428C147.51 92.2428 168.877 100.014 174.35 95.4424L172.823 79.2146L174.011 56.0978L168.49 53.3869L165.526 48.5871Z" fill="#B338FF"/>
<path d="M162.896 46.8693C166.554 46.8693 169.52 43.8972 169.52 40.231C169.52 36.5648 166.554 33.5928 162.896 33.5928C159.239 33.5928 156.273 36.5648 156.273 40.231C156.273 43.8972 159.239 46.8693 162.896 46.8693Z" fill="#FFB6B6"/>
<path d="M157.66 45.6541C158.141 45.7013 158.168 46.6342 158.625 46.7745C159.044 46.9028 159.773 46.3533 159.845 45.756C159.902 45.28 159.5 45.1199 158.93 44.1264C158.595 43.5424 159.139 43.6992 159.12 42.869C159.114 42.6217 158.206 41.1186 158.676 40.4599C158.832 40.2419 159.052 39.933 159.438 39.7979C160.019 39.5947 160.331 40.0105 161.064 40.0525C161.765 40.0927 160.611 40.7575 161.423 40.2363C162.253 39.7034 162.568 38.3191 162.563 37.7221C162.559 37.1078 162.422 38.266 162.563 37.7221C162.635 37.4478 165.414 39.8991 165.55 39.8164C166.425 39.2835 166.865 38.2845 167.809 38.8649C168.832 39.4946 169.296 39.2435 169.633 39.0934C169.909 38.9701 169.682 36.6152 169.6 36.2332C169.376 35.1825 168.217 34.6911 168.127 34.6546C167.527 34.4106 167.307 34.5888 166.958 34.2981C166.462 33.8853 166.744 33.392 166.348 32.9741C165.913 32.5139 165.401 33.3567 163.519 33.372C162.31 33.3818 162.261 32.6819 161.623 32.7195C161.094 32.7507 159.337 32.8542 157.762 34.0944C156.056 35.4369 155.605 37.2919 155.475 37.8628C155.171 39.197 155.047 41.5754 156.187 42.8533C156.46 43.1597 156.878 43.4839 157.05 44.1264C157.245 44.851 157.02 45.5822 157.304 45.7051C157.424 45.7566 157.483 45.6368 157.66 45.6541H157.66Z" fill="#30004E"/>
<path d="M6.04443 167.832C6.04443 168.056 6.2238 168.236 6.44716 168.236H194.026C194.249 168.236 194.429 168.056 194.429 167.832C194.429 167.608 194.249 167.429 194.026 167.429H6.44716C6.2238 167.429 6.04443 167.608 6.04443 167.832Z" fill="#CCCCCC"/>
<path d="M148.623 95.7818H51.8504C48.3005 95.7818 45.4138 98.675 45.4138 102.233V161.236C45.4138 164.794 48.3005 167.687 51.8504 167.687H148.623C152.173 167.687 155.06 164.794 155.06 161.236V102.233C155.06 98.675 152.173 95.7818 148.623 95.7818Z" fill="white"/>
<path d="M148.623 95.7818H51.8504C48.3005 95.7818 45.4138 98.675 45.4138 102.233V161.236C45.4138 164.794 48.3005 167.687 51.8504 167.687H148.623C152.173 167.687 155.06 164.794 155.06 161.236V102.233C155.06 98.675 152.173 95.7818 148.623 95.7818ZM154.383 141.674C154.383 155.666 143.065 167.009 129.105 167.009H51.8504C48.6694 167.009 46.0906 164.424 46.0906 161.236V102.233C46.0906 99.0447 48.6694 96.4602 51.8504 96.4602H148.623C151.804 96.4602 154.383 99.0447 154.383 102.233V141.674Z" fill="#3F3D56"/>
<path d="M54.233 98.1115C54.0971 97.4235 54.1275 96.7618 54.2883 96.2186L52.5806 89.7467L55.677 89.0223L57.0759 95.6654C57.4311 96.1062 57.7108 96.7064 57.8467 97.3944C58.1572 98.9661 57.6 100.401 56.6021 100.599C55.6042 100.797 54.5435 99.6832 54.233 98.1115V98.1115Z" fill="#FFB6B6"/>
<path d="M44.7349 54.207C44.7349 54.207 48.6117 52.607 50.4361 55.5783C52.2604 58.5497 57.0495 93.5199 57.0495 93.5199L53.0586 94.0913L45.191 65.8637L44.7349 54.207Z" fill="#B338FF"/>
<path d="M140.305 99.1438C140.399 98.4432 140.641 97.8217 140.969 97.3556L140.224 82.1933L145.888 81.4353L143.791 97.7335C143.985 98.2695 144.056 98.933 143.963 99.6336C143.749 101.234 142.757 102.422 141.747 102.287C140.737 102.151 140.091 100.744 140.305 99.1438V99.1438Z" fill="#FFB6B6"/>
<path d="M154.84 56.3601C154.84 56.3601 149.473 54.3285 147.688 56.17C145.903 58.0115 139.977 78.5397 139.977 78.5397L140.532 93.8283L144.76 93.097L154.84 56.3601V56.3601Z" fill="#B338FF"/>
<path d="M89.079 153.674H79.5831C79.106 153.674 78.7168 154.064 78.7168 154.542C78.7168 155.024 79.106 155.414 79.5831 155.414H89.079C89.5562 155.414 89.9453 155.024 89.9453 154.542C89.9453 154.064 89.5562 153.674 89.079 153.674Z" fill="#E6E6E6"/>
<path d="M104.986 153.674H95.4901C95.013 153.674 94.6238 154.064 94.6238 154.542C94.6238 155.024 95.013 155.414 95.4901 155.414H104.986C105.463 155.414 105.852 155.024 105.852 154.542C105.852 154.064 105.463 153.674 104.986 153.674Z" fill="#E6E6E6"/>
<path d="M120.889 153.674H111.393C110.916 153.674 110.526 154.064 110.526 154.542C110.526 155.024 110.916 155.414 111.393 155.414H120.889C121.366 155.414 121.755 155.024 121.755 154.542C121.755 154.064 121.366 153.674 120.889 153.674Z" fill="#E6E6E6"/>
<path d="M159.289 64.2396C159.289 62.4629 160.731 61.0175 162.503 61.0175C164.276 61.0175 165.718 62.4629 165.718 64.2396C165.718 66.0163 164.276 67.4618 162.503 67.4618C160.731 67.4618 159.289 66.0163 159.289 64.2396ZM159.627 64.2396C159.627 65.8292 160.917 67.1226 162.503 67.1226C164.09 67.1226 165.38 65.8292 165.38 64.2396C165.38 62.6501 164.09 61.3566 162.503 61.3566C160.917 61.3566 159.627 62.6501 159.627 64.2396Z" fill="#3F3D56"/>
<path d="M162.503 65.9361C163.438 65.9361 164.195 65.1768 164.195 64.2402C164.195 63.3036 163.438 62.5443 162.503 62.5443C161.569 62.5443 160.811 63.3036 160.811 64.2402C160.811 65.1768 161.569 65.9361 162.503 65.9361Z" fill="#3F3D56"/>
<path d="M166.331 66.8586C166.774 67.4016 167.057 67.9999 167.17 68.5551L178.646 78.2866L175.327 82.9321L164.97 70.3575C164.45 70.136 163.921 69.7382 163.478 69.1952C162.467 67.9547 162.285 66.426 163.073 65.7808C163.86 65.1355 165.319 65.6181 166.331 66.8586H166.331Z" fill="#FFB6B6"/>
<path d="M170.884 56.2442C170.884 56.2442 174.077 54.6443 175.901 57.387C177.725 60.1298 179.582 74.3093 179.582 74.3093C179.582 74.3093 181.83 84.129 177.497 83.9004C173.164 83.6719 165.212 71.4067 165.212 71.4067L168.257 68.6932L168.603 65.3868L170.884 56.2442L170.884 56.2442Z" fill="#B338FF"/>
<path d="M37.8467 33.3132C35.2746 33.7668 32.782 35.1625 31.4476 37.4126C30.1132 39.6627 27.6681 42.7978 29.4408 44.7201C30.0534 45.3845 30.834 45.8875 31.3851 46.604C32.323 47.8232 32.4584 49.5363 31.9908 51.0028C31.5231 52.4692 30.5201 53.7126 29.3727 54.7362C31.8288 54.4822 34.0703 52.7334 34.9185 50.4092C35.311 49.3337 35.3909 48.0437 34.7193 47.1172C34.3661 46.63 33.8458 46.2969 33.3971 45.8962C32.2399 44.8629 32.9831 43.302 32.99 41.7487C32.9969 40.1953 33.192 39.1147 34.3583 38.0917C35.1615 38.7351 37.8249 38.5797 38.8398 38.4147C39.8548 38.2496 42.6932 42.1565 43.2522 41.2916C44.3465 42.7014 43.5978 39.7962 43.3923 41.5705C43.2453 42.8399 42.4137 43.9349 42.163 45.1878C41.9448 46.2781 42.1833 47.4128 42.5665 48.4563C43.4311 50.8104 45.0519 52.8788 47.129 54.2784C45.9298 52.5784 44.6795 50.7206 44.7189 48.639C44.7482 47.095 47.3535 43.9083 47.8132 42.4344C48.6927 39.614 46.949 36.4886 45.0766 34.2061C43.4322 32.2016 40.2536 32.821 37.733 33.4144" fill="#30004E"/>
<path opacity="0.7" d="M120.404 126.445C121.942 127.798 120.079 130.471 119.479 132.321C118.543 135.204 115.589 136.919 112.611 136.391C110.304 135.983 107.982 135.694 105.646 135.528C103.155 135.352 100.651 135.314 98.1265 135.416C95.5038 135.521 92.8642 135.782 90.2009 136.2L90.1563 136.207C87.0999 136.683 84.1708 134.843 83.2875 131.872C82.7764 130.153 81.1872 127.794 82.502 126.445C86.5599 122.281 84.4034 120.888 83.9261 119.209C83.178 116.578 87.5309 115.137 90.2471 115.415C90.3603 115.426 90.4735 115.438 90.5867 115.449C94.5969 115.846 98.607 116.002 102.617 115.917C103.626 115.9 104.638 115.862 105.646 115.812C107.934 115.699 110.22 115.508 112.506 115.238C115.163 114.924 119.826 116.334 118.814 118.816C117.771 121.374 117.656 124.028 120.404 126.445Z" fill="#B338FF"/>
<path opacity="0.7" d="M105.646 115.812V135.528C103.155 135.352 100.651 135.314 98.1264 135.416C95.5037 135.521 92.864 135.782 90.2007 136.199C90.556 132.899 90.3293 129.541 92.8708 128.31C96.0147 126.784 93.2228 120.621 90.5865 115.449C94.5967 115.845 98.6069 116.001 102.617 115.917C103.626 115.9 104.637 115.862 105.646 115.812V115.812Z" fill="#3F3D56"/>
<path opacity="0.7" d="M120.405 126.446C121.914 127.831 120.08 130.472 119.48 132.322C118.544 135.205 115.59 136.92 112.612 136.393C110.305 135.984 107.983 135.695 105.647 135.529C103.156 135.353 100.652 135.315 98.1275 135.417C95.7654 132.361 94.8618 129.556 97.0344 127.789C99.4947 125.791 100.351 120.88 102.618 115.918C103.627 115.901 104.639 115.864 105.647 115.813C107.934 115.7 110.221 115.509 112.507 115.239C115.164 114.925 119.941 116.385 118.815 118.817C117.699 121.228 117.56 123.834 120.405 126.446Z" fill="#FF6884"/>
<path d="M97.2843 131.781H87.7885C87.3113 131.781 86.9221 132.171 86.9221 132.649C86.9221 133.131 87.3113 133.521 87.7885 133.521H97.2843C97.7615 133.521 98.1507 133.131 98.1507 132.649C98.1507 132.171 97.7615 131.781 97.2843 131.781Z" fill="#3F3D56"/>
<path d="M114.203 125.675H104.707C104.23 125.675 103.841 126.065 103.841 126.544C103.841 127.025 104.23 127.415 104.707 127.415H114.203C114.68 127.415 115.07 127.025 115.07 126.544C115.07 126.065 114.68 125.675 114.203 125.675Z" fill="#3F3D56"/>
<path d="M101.006 119.908H91.5099C91.0327 119.908 90.6436 120.298 90.6436 120.776C90.6436 121.258 91.0327 121.648 91.5099 121.648H101.006C101.483 121.648 101.872 121.258 101.872 120.776C101.872 120.298 101.483 119.908 101.006 119.908Z" fill="#3F3D56"/>
<path d="M87.8458 130.366H52.6479V130.705H87.8458V130.366Z" fill="#3F3D56"/>
<path d="M59.7576 133.707C57.9849 133.707 56.5427 132.262 56.5427 130.485C56.5427 128.709 57.9849 127.263 59.7576 127.263C61.5303 127.263 62.9726 128.709 62.9726 130.485C62.9726 132.262 61.5303 133.707 59.7576 133.707ZM59.7576 127.602C58.1715 127.602 56.8811 128.896 56.8811 130.485C56.8811 132.075 58.1715 133.368 59.7576 133.368C61.3438 133.368 62.6342 132.075 62.6342 130.485C62.6342 128.896 61.3438 127.602 59.7576 127.602Z" fill="#3F3D56"/>
<path d="M59.757 132.182C60.6915 132.182 61.4491 131.422 61.4491 130.486C61.4491 129.549 60.6915 128.79 59.757 128.79C58.8225 128.79 58.0649 129.549 58.0649 130.486C58.0649 131.422 58.8225 132.182 59.757 132.182Z" fill="#B338FF"/>
<path d="M145.117 128.671H109.919V129.01H145.117V128.671Z" fill="#3F3D56"/>
<path d="M134.794 128.79C134.794 127.013 136.236 125.568 138.009 125.568C139.782 125.568 141.224 127.013 141.224 128.79C141.224 130.567 139.782 132.012 138.009 132.012C136.236 132.012 134.794 130.567 134.794 128.79ZM135.132 128.79C135.132 130.379 136.423 131.673 138.009 131.673C139.595 131.673 140.885 130.379 140.885 128.79C140.885 127.2 139.595 125.907 138.009 125.907C136.423 125.907 135.132 127.2 135.132 128.79Z" fill="#3F3D56"/>
<path d="M138.008 130.486C138.943 130.486 139.7 129.727 139.7 128.79C139.7 127.854 138.943 127.094 138.008 127.094C137.074 127.094 136.316 127.854 136.316 128.79C136.316 129.727 137.074 130.486 138.008 130.486Z" fill="#FF6884"/>
<path d="M97.6613 118.156H62.4634V118.495H97.6613V118.156Z" fill="#3F3D56"/>
<path d="M69.5731 121.497C67.8004 121.497 66.3582 120.052 66.3582 118.275C66.3582 116.498 67.8004 115.053 69.5731 115.053C71.3458 115.053 72.788 116.498 72.788 118.275C72.788 120.052 71.3458 121.497 69.5731 121.497ZM69.5731 115.392C67.9869 115.392 66.6966 116.685 66.6966 118.275C66.6966 119.865 67.9869 121.158 69.5731 121.158C71.1592 121.158 72.4496 119.865 72.4496 118.275C72.4496 116.685 71.1592 115.392 69.5731 115.392Z" fill="#3F3D56"/>
<path d="M69.5722 119.972C70.5067 119.972 71.2642 119.212 71.2642 118.276C71.2642 117.339 70.5067 116.58 69.5722 116.58C68.6377 116.58 67.8801 117.339 67.8801 118.276C67.8801 119.212 68.6377 119.972 69.5722 119.972Z" fill="#3F3D56"/>
</svg>
