<svg width="20" height="20" viewBox="0 0 20 20" fill="none" xmlns="http://www.w3.org/2000/svg">
<path d="M9.99913 5.19371C7.33898 5.19371 5.1921 7.34059 5.1921 10.0007C5.1921 12.6609 7.33898 14.8078 9.99913 14.8078C12.6593 14.8078 14.8062 12.6609 14.8062 10.0007C14.8062 7.34059 12.6593 5.19371 9.99913 5.19371ZM9.99913 13.125C8.27882 13.125 6.87492 11.7211 6.87492 10.0007C6.87492 8.28043 8.27882 6.87653 9.99913 6.87653C11.7194 6.87653 13.1234 8.28043 13.1234 10.0007C13.1234 11.7211 11.7194 13.125 9.99913 13.125ZM15.003 3.87653C14.3819 3.87653 13.8804 4.37809 13.8804 4.99918C13.8804 5.62028 14.3819 6.12184 15.003 6.12184C15.6241 6.12184 16.1257 5.62262 16.1257 4.99918C16.1259 4.8517 16.097 4.70563 16.0406 4.56934C15.9843 4.43305 15.9016 4.30922 15.7973 4.20493C15.693 4.10065 15.5692 4.01796 15.4329 3.96161C15.2966 3.90525 15.1505 3.87634 15.003 3.87653ZM19.3694 10.0007C19.3694 8.707 19.3812 7.42496 19.3085 6.13356C19.2359 4.63356 18.8937 3.30231 17.7968 2.20543C16.6976 1.10621 15.3687 0.766371 13.8687 0.693715C12.5749 0.621058 11.2929 0.632777 10.0015 0.632777C8.70773 0.632777 7.4257 0.621058 6.13429 0.693715C4.63429 0.766371 3.30304 1.10856 2.20617 2.20543C1.10695 3.30465 0.767103 4.63356 0.694447 6.13356C0.621791 7.42731 0.63351 8.70934 0.63351 10.0007C0.63351 11.2922 0.621791 12.5765 0.694447 13.8679C0.767103 15.3679 1.10929 16.6992 2.20617 17.7961C3.30538 18.8953 4.63429 19.2351 6.13429 19.3078C7.42804 19.3804 8.71007 19.3687 10.0015 19.3687C11.2952 19.3687 12.5773 19.3804 13.8687 19.3078C15.3687 19.2351 16.6999 18.8929 17.7968 17.7961C18.896 16.6968 19.2359 15.3679 19.3085 13.8679C19.3835 12.5765 19.3694 11.2945 19.3694 10.0007ZM17.3069 15.5273C17.1359 15.9539 16.9296 16.2726 16.5991 16.6007C16.2687 16.9312 15.9523 17.1375 15.5257 17.3086C14.2929 17.7984 11.3655 17.6882 9.99913 17.6882C8.63273 17.6882 5.70304 17.7984 4.47023 17.3109C4.04367 17.1398 3.72492 16.9336 3.39679 16.6031C3.06632 16.2726 2.86007 15.9562 2.68898 15.5297C2.20148 14.2945 2.31163 11.3672 2.31163 10.0007C2.31163 8.63434 2.20148 5.70465 2.68898 4.47184C2.86007 4.04528 3.06632 3.72653 3.39679 3.3984C3.72726 3.07028 4.04367 2.86168 4.47023 2.69059C5.70304 2.20309 8.63273 2.31325 9.99913 2.31325C11.3655 2.31325 14.2952 2.20309 15.528 2.69059C15.9546 2.86168 16.2734 3.06793 16.6015 3.3984C16.9319 3.72887 17.1382 4.04528 17.3093 4.47184C17.7968 5.70465 17.6866 8.63434 17.6866 10.0007C17.6866 11.3672 17.7968 14.2945 17.3069 15.5273Z" fill="#262626"/>
</svg>
