<svg width="14" height="15" viewBox="0 0 14 15" fill="none" xmlns="http://www.w3.org/2000/svg">
<path d="M13.0904 11.782C12.7588 10.9966 12.2776 10.2831 11.6736 9.68145C11.0714 9.078 10.3581 8.59688 9.57299 8.26465C9.56596 8.26113 9.55893 8.25938 9.5519 8.25586C10.647 7.46484 11.3589 6.17637 11.3589 4.72266C11.3589 2.31445 9.40776 0.363281 6.99956 0.363281C4.59135 0.363281 2.64018 2.31445 2.64018 4.72266C2.64018 6.17637 3.35209 7.46484 4.44721 8.25762C4.44018 8.26113 4.43315 8.26289 4.42612 8.26641C3.63862 8.59863 2.93198 9.075 2.32553 9.6832C1.72209 10.2854 1.24097 10.9987 0.908735 11.7838C0.582349 12.5524 0.406321 13.3764 0.390181 14.2113C0.389712 14.2301 0.393002 14.2488 0.399859 14.2662C0.406716 14.2837 0.417 14.2996 0.430105 14.313C0.44321 14.3265 0.458871 14.3372 0.476166 14.3444C0.493461 14.3517 0.512039 14.3555 0.530806 14.3555H1.58549C1.66284 14.3555 1.72436 14.2939 1.72612 14.2184C1.76127 12.8613 2.3062 11.5904 3.26948 10.6271C4.26616 9.63047 5.58979 9.08203 6.99956 9.08203C8.40932 9.08203 9.73295 9.63047 10.7296 10.6271C11.6929 11.5904 12.2378 12.8613 12.273 14.2184C12.2748 14.2957 12.3363 14.3555 12.4136 14.3555H13.4683C13.4871 14.3555 13.5057 14.3517 13.5229 14.3444C13.5402 14.3372 13.5559 14.3265 13.569 14.313C13.5821 14.2996 13.5924 14.2837 13.5993 14.2662C13.6061 14.2488 13.6094 14.2301 13.6089 14.2113C13.5914 13.3711 13.4173 12.5537 13.0904 11.782ZM6.99956 7.74609C6.19272 7.74609 5.43335 7.43145 4.86206 6.86016C4.29077 6.28887 3.97612 5.52949 3.97612 4.72266C3.97612 3.91582 4.29077 3.15645 4.86206 2.58516C5.43335 2.01387 6.19272 1.69922 6.99956 1.69922C7.80639 1.69922 8.56577 2.01387 9.13706 2.58516C9.70835 3.15645 10.023 3.91582 10.023 4.72266C10.023 5.52949 9.70835 6.28887 9.13706 6.86016C8.56577 7.43145 7.80639 7.74609 6.99956 7.74609Z" fill="#221C26"/>
</svg>
