<svg width="175" height="175" viewBox="0 0 175 175" fill="none" xmlns="http://www.w3.org/2000/svg">
<rect width="175" height="175" fill="white"/>
<g clip-path="url(#clip0_357_2052)">
<path d="M44.8854 136.72C46.865 136.72 48.4698 135.118 48.4698 133.143C48.4698 131.168 46.865 129.567 44.8854 129.567C42.9058 129.567 41.301 131.168 41.301 133.143C41.301 135.118 42.9058 136.72 44.8854 136.72Z" fill="#F0F0F0"/>
<path d="M38.251 137.362C39.6396 137.362 40.7654 136.238 40.7654 134.853C40.7654 133.467 39.6396 132.344 38.251 132.344C36.8623 132.344 35.7366 133.467 35.7366 134.853C35.7366 136.238 36.8623 137.362 38.251 137.362Z" fill="#F0F0F0"/>
<path d="M43.4182 25.237C45.0104 25.237 46.3011 23.9492 46.3011 22.3606C46.3011 20.772 45.0104 19.4841 43.4182 19.4841C41.8261 19.4841 40.5354 20.772 40.5354 22.3606C40.5354 23.9492 41.8261 25.237 43.4182 25.237Z" fill="#CCCCCC"/>
<path d="M147.201 58.7963C148.794 58.7963 150.084 57.5085 150.084 55.9199C150.084 54.3313 148.794 53.0435 147.201 53.0435C145.609 53.0435 144.319 54.3313 144.319 55.9199C144.319 57.5085 145.609 58.7963 147.201 58.7963Z" fill="#CCCCCC"/>
<path d="M18.4334 41.5384H17.9529V10.377H48.7032V10.8564H18.4334V41.5384Z" fill="#CCCCCC"/>
<path d="M158.229 41.5384H157.748V10.8564H127.478V10.377H158.229V41.5384Z" fill="#CCCCCC"/>
<path d="M18.4334 67.9066H17.9529V99.068H48.7032V98.5886H18.4334V67.9066Z" fill="#CCCCCC"/>
<path d="M158.229 67.9066H157.748V98.5886H127.478V99.068H158.229V67.9066Z" fill="#CCCCCC"/>
<path d="M60.2352 24.9973H26.6021V25.4767H60.2352V24.9973Z" fill="#CCCCCC"/>
<path d="M36.2102 20.6838H35.7297V25.1183H36.2102V20.6838Z" fill="#CCCCCC"/>
<path d="M50.8648 20.6838H50.3843V25.1183H50.8648V20.6838Z" fill="#CCCCCC"/>
<path d="M141.675 54.4808H141.195V58.9153H141.675V54.4808Z" fill="#CCCCCC"/>
<path d="M87.5958 122.184C95.0259 122.184 101.049 120.788 101.049 119.067C101.049 117.347 95.0259 115.951 87.5958 115.951C80.1658 115.951 74.1426 117.347 74.1426 119.067C74.1426 120.788 80.1658 122.184 87.5958 122.184Z" fill="#3F3D56"/>
<path d="M98.3879 150.109L85.415 151.066L85.4505 151.544L98.4234 150.587L98.3879 150.109Z" fill="#CACACA"/>
<path d="M76.9 148.46L76.6685 148.88L81.4732 151.517L81.7047 151.097L76.9 148.46Z" fill="#CACACA"/>
<path d="M90.4793 146.752H86.155V147.232H90.4793V146.752Z" fill="#CACACA"/>
<path d="M74.8613 176.731L74.3818 176.698L77.9854 121.806L78.4649 121.839L74.8613 176.731Z" fill="#CACACA"/>
<path d="M92.6419 176.728L90.2395 126.15L90.7195 126.127L93.1219 176.704L92.6419 176.728Z" fill="#CACACA"/>
<path d="M97.445 121.565L96.9661 121.605L101.53 176.736L102.009 176.697L97.445 121.565Z" fill="#CACACA"/>
<path d="M82.3101 176.721L81.8296 176.709L83.271 126.132L83.7515 126.143L82.3101 176.721Z" fill="#CACACA"/>
<path d="M80.0113 145.017L76.8205 146.903L68.0125 135.52L72.722 132.737L80.0113 145.017Z" fill="#FFB6B6"/>
<path d="M82.6578 147.619L72.3691 153.699L72.292 153.569C71.663 152.51 71.4816 151.244 71.7878 150.051C72.094 148.858 72.8626 147.835 73.9246 147.207L73.9248 147.207L80.2089 143.493L82.6578 147.619Z" fill="#30004E"/>
<path d="M95.4194 145.017L98.6103 146.903L107.418 135.52L102.709 132.737L95.4194 145.017Z" fill="#FFB6B6"/>
<path d="M95.2229 143.493L101.507 147.207L101.507 147.207C102.569 147.835 103.338 148.858 103.644 150.051C103.95 151.244 103.769 152.51 103.14 153.569L103.063 153.699L92.7739 147.619L95.2229 143.493Z" fill="#30004E"/>
<path d="M97.613 101.584C97.613 101.584 87.2023 108.9 77.0687 102.298L76.9101 106.901C76.9101 106.901 55.2037 116.086 58.767 123.262C62.3303 130.438 69.8179 137.884 69.8179 137.884L73.9019 134.528L69.3374 123.022L81.7533 117.774L92.5773 117.828L107.67 123.924L100.463 134.71L106.814 136.685C106.814 136.685 121.949 122.783 118.706 118.827C116.106 115.657 100.545 108.549 100.545 108.549L97.613 101.584Z" fill="#30004E"/>
<path d="M101.234 74.7451L92.2236 71.7647L89.9963 68.6107H83.5099L81.5881 71.8146L73.2326 74.7451C72.7771 74.875 72.3857 75.1682 72.1336 75.5685C71.8814 75.9688 71.7864 76.4478 71.8666 76.9137L75.5821 107.443L81.588 106.963C81.588 106.963 89.6796 113.263 94.5608 106.004L94.8214 102.344L99.846 107.203L102.6 76.9137C102.681 76.4478 102.586 75.9688 102.334 75.5685C102.081 75.1682 101.69 74.875 101.234 74.7451Z" fill="#B338FF"/>
<path d="M94.3178 54.0411C91.6536 49.5494 86.3827 49.3401 86.3827 49.3401C86.3827 49.3401 81.2465 48.6847 77.9517 55.5256C74.8807 61.9018 70.6422 65.9009 77.2694 67.3935L78.4664 63.676L79.2077 67.6702C80.1513 67.738 81.0979 67.7541 82.0432 67.7186C89.1403 67.49 95.8992 67.7855 95.6816 65.2444C95.3923 61.8664 96.8813 58.3629 94.3178 54.0411Z" fill="#30004E"/>
<path d="M86.9969 67.3924C90.8446 67.3924 93.9638 64.2802 93.9638 60.441C93.9638 56.6019 90.8446 53.4896 86.9969 53.4896C83.1492 53.4896 80.03 56.6019 80.03 60.441C80.03 64.2802 83.1492 67.3924 86.9969 67.3924Z" fill="#FFB8B8"/>
<path d="M93.3796 53.3675L88.1722 50.6459L80.9812 51.7593L79.4934 58.3159L83.1969 58.1738L84.2316 55.765V58.1342L85.9406 58.0685L86.9323 54.2335L87.5524 58.3159L93.6277 58.1922L93.3796 53.3675Z" fill="#30004E"/>
<path opacity="0.2" d="M76.1079 81.3273L81.5132 102.419C81.5132 102.419 78.9907 83.9641 76.1079 81.3273Z" fill="black"/>
<path opacity="0.2" d="M92.2356 102.662L97.6409 81.57C94.7581 84.2067 92.2356 102.662 92.2356 102.662Z" fill="black"/>
<path d="M93.4963 121.087C93.7875 120.934 94.0415 120.718 94.2403 120.457C94.4391 120.195 94.5779 119.892 94.647 119.571C94.7161 119.25 94.7137 118.917 94.6401 118.597C94.5664 118.277 94.4233 117.976 94.2208 117.717L99.128 104.326L95.3717 102.418L90.9179 117.409C90.5042 117.778 90.2402 118.285 90.1761 118.834C90.112 119.384 90.2521 119.938 90.5699 120.391C90.8877 120.844 91.3612 121.166 91.9005 121.294C92.4399 121.422 93.0077 121.349 93.4963 121.087Z" fill="#FFB6B6"/>
<path d="M98.236 80.0114L92.7612 103.766C92.7083 104.012 92.7541 104.268 92.8887 104.48C93.0232 104.693 93.2358 104.844 93.4807 104.901L98.7533 105.659C98.883 105.689 99.0177 105.693 99.1488 105.668C99.2798 105.644 99.4044 105.593 99.5145 105.518C99.6246 105.443 99.718 105.346 99.7885 105.233C99.8591 105.12 99.9054 104.994 99.9244 104.863L101.529 80.1152L98.236 80.0114Z" fill="#B338FF"/>
<path d="M80.9739 121.564C80.6827 121.411 80.4288 121.195 80.2299 120.933C80.0311 120.671 79.8923 120.369 79.8232 120.048C79.7541 119.726 79.7565 119.394 79.8302 119.074C79.9038 118.753 80.0469 118.453 80.2495 118.194L75.3423 104.803L79.0985 102.895L83.5524 117.886C83.9661 118.255 84.23 118.762 84.2941 119.311C84.3583 119.861 84.2181 120.415 83.9003 120.868C83.5825 121.321 83.1091 121.642 82.5697 121.771C82.0304 121.899 81.4626 121.825 80.9739 121.564Z" fill="#FFB6B6"/>
<path d="M76.2356 80.4899L81.7105 104.245C81.7633 104.49 81.7176 104.747 81.583 104.959C81.4485 105.171 81.2359 105.322 80.991 105.38L75.7184 106.138C75.5887 106.168 75.454 106.171 75.3229 106.147C75.1919 106.123 75.0673 106.071 74.9572 105.996C74.847 105.922 74.7537 105.825 74.6832 105.712C74.6126 105.599 74.5663 105.473 74.5473 105.341L72.4626 80.5937L76.2356 80.4899Z" fill="#B338FF"/>
<path d="M136.797 140.483L136.977 140.227C140.061 142.388 142.31 147.193 143.663 154.51C144.281 157.928 144.653 161.385 144.774 164.856L144.461 164.862C144.457 164.669 144.001 145.529 136.797 140.483Z" fill="#E4E4E4"/>
<path d="M137.267 154.293L137.447 154.038C140.661 156.29 140.857 164.437 140.864 164.782L140.551 164.788C140.549 164.705 140.352 156.454 137.267 154.293Z" fill="#E4E4E4"/>
<path d="M135.009 140.355C135.872 140.355 136.573 139.656 136.573 138.794C136.573 137.932 135.872 137.233 135.009 137.233C134.145 137.233 133.444 137.932 133.444 138.794C133.444 139.656 134.145 140.355 135.009 140.355Z" fill="#E4E4E4"/>
<path d="M135.791 153.933C136.655 153.933 137.356 153.234 137.356 152.372C137.356 151.51 136.655 150.811 135.791 150.811C134.927 150.811 134.227 151.51 134.227 152.372C134.227 153.234 134.927 153.933 135.791 153.933Z" fill="#E4E4E4"/>
<path d="M142.816 138.211C143.313 139.324 143.477 140.556 143.288 141.76C143.099 142.964 142.566 144.088 141.752 144.996C141.254 143.883 141.09 142.65 141.279 141.446C141.468 140.243 142.002 139.119 142.816 138.211Z" fill="#E4E4E4"/>
<path d="M133.241 143.923C134.426 143.629 135.671 143.683 136.826 144.078C137.981 144.473 138.997 145.193 139.751 146.152C138.566 146.446 137.321 146.392 136.166 145.997C135.011 145.602 133.995 144.882 133.241 143.923Z" fill="#E4E4E4"/>
<path d="M134.058 156.43C134.888 156.224 135.761 156.261 136.571 156.538C137.38 156.815 138.092 157.32 138.621 157.992C137.79 158.198 136.918 158.161 136.108 157.883C135.299 157.606 134.587 157.102 134.058 156.43Z" fill="#E4E4E4"/>
<g clip-path="url(#clip1_357_2052)">
<path d="M135.68 71.0583C135.659 73.0861 135.157 75.0801 134.216 76.8766C133.275 78.6731 131.921 80.221 130.265 81.3931C130.236 81.413 130.207 81.434 130.177 81.4551C130.146 81.4772 130.114 81.4994 130.081 81.5204C129.895 81.6488 129.706 81.7717 129.512 81.8891C129.24 82.0551 128.961 82.2112 128.676 82.3574C128.667 82.3618 128.657 82.3662 128.648 82.3706C128.484 82.4548 128.319 82.5345 128.152 82.6098C128.146 82.612 128.142 82.6142 128.136 82.6164C128.098 82.6341 128.057 82.6529 128.017 82.6695C127.708 82.8068 127.392 82.9319 127.071 83.0426C126.797 83.1389 126.52 83.2253 126.238 83.3017C125.662 83.4605 125.075 83.5782 124.482 83.6537C123.977 83.7187 123.468 83.7535 122.958 83.7578C122.916 83.7589 122.874 83.7589 122.832 83.7589C122.554 83.7589 122.277 83.7501 122.003 83.7323C121.764 83.7168 121.527 83.6958 121.292 83.667C120.93 83.6238 120.572 83.5663 120.22 83.491C120.205 83.4888 120.189 83.4855 120.174 83.4821C120.161 83.4799 120.148 83.4766 120.136 83.4744C119.782 83.4002 119.433 83.3094 119.09 83.2054C118.768 83.108 118.452 82.998 118.141 82.8755C118.061 82.8445 117.983 82.8135 117.904 82.7803C117.708 82.6983 117.514 82.6131 117.324 82.5212C117.268 82.4957 117.214 82.4692 117.16 82.4426C116.976 82.3529 116.794 82.2588 116.617 82.1592C116.403 82.0407 116.193 81.9164 115.987 81.7861C115.726 81.6223 115.472 81.4496 115.225 81.2669C113.03 79.6553 111.405 77.3886 110.583 74.7937C109.761 72.1989 109.785 69.4101 110.652 66.8298C111.518 64.2496 113.183 62.0113 115.405 60.4379C117.627 58.8645 120.292 58.0375 123.015 58.0761C130.06 58.1739 135.756 64.0162 135.68 71.0583Z" fill="#F1F1F1"/>
<path d="M120.134 83.4751C119.78 83.4009 119.431 83.3102 119.089 83.2061L120.264 75.9227L121.481 75.885L123.689 75.8153L124.821 75.7798C124.821 75.7798 125.624 79.307 126.236 83.3024C125.66 83.4612 125.074 83.5789 124.481 83.6545C123.975 83.7194 123.466 83.7542 122.957 83.7585C122.915 83.7596 122.873 83.7596 122.83 83.7596C122.552 83.7596 122.276 83.7508 122.002 83.7331C121.763 83.7176 121.526 83.6965 121.291 83.6677C120.929 83.6246 120.571 83.567 120.219 83.4917C120.203 83.4895 120.188 83.4862 120.172 83.4829C120.16 83.4806 120.147 83.4773 120.134 83.4751Z" fill="#CBCBCB"/>
<path d="M120.22 83.4891C120.204 83.4869 120.189 83.4835 120.173 83.4802C120.161 83.478 120.148 83.4747 120.136 83.4725C119.781 83.3983 119.432 83.3075 119.09 83.2035C118.768 83.106 118.451 82.9961 118.141 82.8735C118.061 82.8425 117.982 82.8115 117.904 82.7783C117.708 82.6964 117.514 82.6112 117.323 82.5193C117.268 82.4938 117.214 82.4672 117.159 82.4407L117.062 76.9872L120.053 75.7064C120.053 75.7064 120.063 75.7861 121.483 75.8824C121.753 76.7636 120.22 83.4891 120.22 83.4891Z" fill="#30004E"/>
<path d="M129.159 76.7318L128.595 79.6932L128.649 82.3713C128.485 82.4554 128.319 82.5351 128.152 82.6104C128.147 82.6126 128.142 82.6148 128.137 82.617C128.098 82.6347 128.057 82.6536 128.017 82.6702C127.708 82.8074 127.393 82.9326 127.071 83.0433C126.798 83.1396 126.52 83.2259 126.238 83.3023C125.662 83.4611 125.076 83.5788 124.483 83.6544C123.977 83.7193 123.468 83.7541 122.959 83.7584L122.9 79.0124C122.776 77.4824 123.187 76.4706 123.691 75.8152C126.377 75.4565 126.317 75.4244 126.317 75.4244L129.165 76.7053L129.159 76.7318Z" fill="#30004E"/>
<path d="M118.342 77.4171L118.14 82.8761C118.06 82.8451 117.981 82.8141 117.903 82.7809C117.707 82.699 117.513 82.6137 117.322 82.5219C117.267 82.4964 117.213 82.4698 117.158 82.4433C116.974 82.3536 116.793 82.2595 116.616 82.1598C116.402 82.0414 116.192 81.917 115.985 81.7868L117.061 76.9898L118.342 77.4171Z" fill="#30004E"/>
<path d="M130.266 81.392C130.237 81.4119 130.207 81.4329 130.178 81.4539C130.147 81.4761 130.114 81.4982 130.082 81.5193C129.896 81.6477 129.706 81.7706 129.513 81.8879C129.24 82.054 128.962 82.2101 128.677 82.3562C128.668 82.3606 128.658 82.3651 128.649 82.3695C128.48 82.4562 128.31 82.5382 128.138 82.6155L128.137 82.6153L127.935 77.1375L129.16 76.7301L129.216 76.7112L130.266 81.392Z" fill="#30004E"/>
<path d="M125.889 71.6627C126.382 69.9845 125.423 68.2262 123.748 67.7355C122.074 67.2447 120.317 68.2073 119.825 69.8855C119.332 71.5637 120.291 73.322 121.966 73.8127C123.64 74.3035 125.397 73.3408 125.889 71.6627Z" fill="#9F616A"/>
<path d="M119.675 71.5666V70.3343C119.675 70.3343 118.681 69.1638 119.775 68.869C119.775 68.869 120.073 65.9207 122.658 67.2966C122.658 67.2966 126.238 66.7069 125.84 68.7707C125.84 68.7707 126.735 68.2319 126.436 69.6078L125.86 71.8241C125.86 71.8241 126.138 70.3601 125.243 70.1635L124.746 69.8687C124.746 69.8687 123.354 71.2446 121.266 69.5739C121.266 69.5739 120.371 69.3604 120.471 70.2449C120.57 71.1294 119.675 71.5666 119.675 71.5666Z" fill="#30004E"/>
<path d="M122.832 86.2338C124.449 86.2338 125.76 84.9235 125.76 83.3071C125.76 81.6908 124.449 80.3804 122.832 80.3804C121.215 80.3804 119.904 81.6908 119.904 83.3071C119.904 84.9235 121.215 86.2338 122.832 86.2338Z" fill="#B338FF"/>
<path d="M122.553 84.5441L121.676 83.4177L122.186 83.0215L122.601 83.5548L124.003 82.0757L124.472 82.5196L122.553 84.5441Z" fill="white"/>
<path d="M64.3297 70.6792C64.3313 72.7493 63.8315 74.789 62.8731 76.6241C61.9147 78.4592 60.5261 80.0352 58.8259 81.2174C58.347 81.5524 57.8455 81.8539 57.325 82.1197C57.1523 82.2082 56.9784 82.2924 56.8012 82.3721C56.6416 82.4451 56.4811 82.5138 56.3182 82.5791C54.2987 83.3964 52.1049 83.6889 49.9416 83.4293C49.5672 83.3851 49.1976 83.3242 48.8328 83.2467C48.8173 83.2433 48.8007 83.24 48.7852 83.2367C48.0213 83.0752 47.274 82.8428 46.5533 82.5426C44.4046 81.6511 42.5383 80.1932 41.1536 78.3246C39.769 76.456 38.9179 74.2467 38.6911 71.9324C38.4643 69.6182 38.8704 67.2858 39.866 65.1842C40.8616 63.0826 42.4094 61.2905 44.3443 59.9993C46.2791 58.708 48.5284 57.966 50.8521 57.8524C53.1758 57.7388 55.4868 58.2579 57.5385 59.3543C59.5901 60.4507 61.3055 62.0832 62.5016 64.0777C63.6976 66.0722 64.3295 68.3538 64.3297 70.6792Z" fill="#F1F1F1"/>
<path d="M53.8476 68.2824C53.8365 68.2691 53.8243 68.2569 53.8122 68.2448C53.1257 67.552 52.1935 67.1578 51.2179 67.1478C50.2424 67.1379 49.3024 67.513 48.6019 68.1916C48.5941 68.1983 48.5875 68.2049 48.5808 68.2115C48.5719 68.2193 48.5642 68.227 48.5564 68.2348C48.2115 68.5787 47.9378 68.9874 47.7512 69.4372C47.5645 69.8871 47.4685 70.3693 47.4688 70.8563V73.1812C47.4689 73.3133 47.5215 73.4399 47.615 73.5333C47.7084 73.6266 47.8351 73.6792 47.9672 73.6794H54.3915C54.5236 73.6792 54.6503 73.6266 54.7437 73.5333C54.8371 73.4399 54.8897 73.3133 54.8899 73.1812V70.8563C54.8908 69.8955 54.5169 68.9721 53.8476 68.2824Z" fill="#30004E"/>
<path d="M51.3291 73.6574C52.8316 73.6574 54.0496 72.44 54.0496 70.9383C54.0496 69.4366 52.8316 68.2192 51.3291 68.2192C49.8266 68.2192 48.6086 69.4366 48.6086 70.9383C48.6086 72.44 49.8266 73.6574 51.3291 73.6574Z" fill="#FFB7B7"/>
<path d="M54.187 70.7051L53.8658 68.4622C53.8559 68.3933 53.8207 68.3306 53.7672 68.2862C53.7492 68.2717 53.7294 68.2594 53.7085 68.2496C52.0636 67.4802 50.3956 67.4802 48.7507 68.2474C48.7288 68.2576 48.7083 68.2706 48.6898 68.2862C48.6832 68.2917 48.6765 68.2984 48.6699 68.305C48.6259 68.3504 48.5986 68.4093 48.5923 68.4722L48.3774 70.7184C48.3738 70.7568 48.3783 70.7956 48.3905 70.8322C48.4027 70.8688 48.4224 70.9024 48.4483 70.931C48.4902 70.977 48.5464 71.0074 48.6078 71.0173C48.6228 71.0205 48.638 71.022 48.6533 71.0218H49.1982C49.2509 71.0216 49.3025 71.0065 49.3469 70.9783C49.3914 70.9501 49.427 70.9099 49.4497 70.8623L49.6856 70.3575C49.7007 70.3248 49.726 70.2979 49.7578 70.2809C49.7896 70.2639 49.8261 70.2578 49.8617 70.2634C49.8973 70.2691 49.9301 70.2862 49.9551 70.3121C49.9801 70.3381 49.9959 70.3715 50.0001 70.4073L50.0466 70.7793C50.0553 70.8461 50.0879 70.9075 50.1384 70.9521C50.1889 70.9967 50.254 71.0215 50.3214 71.0218H53.9134C53.9604 71.022 54.0067 71.0098 54.0474 70.9863C54.0758 70.9709 54.1013 70.9507 54.1228 70.9266C54.1487 70.8964 54.1679 70.861 54.179 70.8228C54.1901 70.7846 54.1928 70.7445 54.187 70.7051Z" fill="#30004E"/>
<path d="M58.055 78.6399L58.8259 81.2193C58.347 81.5543 57.8455 81.8558 57.325 82.1216C57.1523 82.2102 56.9783 82.2943 56.8012 82.374L56.0025 78.9521L55.6924 77.6247L57.6861 77.4033L58.055 78.6399Z" fill="#FFB7B7"/>
<path d="M48.8816 78.2082L48.8151 81.6933L48.7864 83.2354C48.0224 83.0739 47.2752 82.8415 46.5544 82.5413L46.8192 79.24L46.8857 78.4075L48.8816 78.2082Z" fill="#FFB7B7"/>
<path d="M58.0564 78.6372L56.0538 78.9372L56.0782 79.266L56.3196 82.5784C54.3001 83.3957 52.1063 83.6882 49.943 83.4286C49.5686 83.3843 49.199 83.3234 48.8342 83.246C48.9982 82.5574 49.14 81.9374 48.965 81.8156C48.9122 81.7787 48.8622 81.738 48.8154 81.6938C47.9991 80.9156 48.3004 79.1586 48.3004 79.1586L46.8195 79.2406L46.3066 79.2693C46.3066 79.2693 46.5282 75.7267 47.525 75.7267H48.7434L54.6139 75.1732C54.6139 75.1732 56.2753 74.6196 56.7184 75.3946C56.951 75.8009 57.3652 76.6622 57.7075 77.3906C58.0176 78.0527 58.2691 78.6051 58.2691 78.6051L58.0564 78.6372Z" fill="#30004E"/>
<path d="M51.4821 86.2253C53.0993 86.2253 54.4103 84.915 54.4103 83.2986C54.4103 81.6822 53.0993 80.3719 51.4821 80.3719C49.8649 80.3719 48.554 81.6822 48.554 83.2986C48.554 84.915 49.8649 86.2253 51.4821 86.2253Z" fill="#B338FF"/>
<path d="M51.2026 84.5337L50.3262 83.4074L50.8359 83.0111L51.2508 83.5444L52.6528 82.0654L53.1215 82.5092L51.2026 84.5337Z" fill="white"/>
<path d="M100.129 27.054C100.13 29.1241 99.6305 31.1638 98.6721 32.9989C97.7136 34.834 96.325 36.41 94.6249 37.5922C94.5939 37.6144 94.5618 37.6365 94.5296 37.6575C94.3435 37.7859 94.1537 37.9088 93.9603 38.0262C93.6878 38.1922 93.409 38.3483 93.124 38.4945C92.9513 38.583 92.7773 38.6672 92.6001 38.7469C92.5558 38.7668 92.5104 38.7879 92.465 38.8067C92.156 38.944 91.8403 39.069 91.5191 39.1798C90.6801 39.4738 89.8124 39.6786 88.9305 39.7909C88.3832 39.8612 87.832 39.8963 87.2801 39.896C87.0022 39.896 86.7252 39.8872 86.4516 39.8695C86.2124 39.854 85.9754 39.8329 85.7405 39.8041C85.3628 39.7588 84.9895 39.6979 84.6218 39.6193C84.6097 39.6171 84.5963 39.6137 84.5842 39.6115C83.8202 39.45 83.073 39.2176 82.3523 38.9174C82.1563 38.8355 81.9624 38.7502 81.7719 38.6583C81.5315 38.5454 81.296 38.4247 81.0652 38.2963C79.082 37.2011 77.4238 35.6013 76.2587 33.659C75.0936 31.7167 74.463 29.501 74.431 27.2366C74.3989 24.9722 74.9665 22.7396 76.0761 20.7651C77.1858 18.7907 78.7981 17.1446 80.7495 15.9938C82.7009 14.843 84.9221 14.2283 87.1878 14.2122C89.4535 14.1961 91.6832 14.7791 93.6508 15.9021C95.6184 17.025 97.254 18.648 98.3916 20.6065C99.5292 22.565 100.129 24.7893 100.129 27.054Z" fill="#F1F1F1"/>
<path d="M86.9272 30.2199C88.5118 30.2199 89.7963 28.936 89.7963 27.3523C89.7963 25.7685 88.5118 24.4846 86.9272 24.4846C85.3426 24.4846 84.0581 25.7685 84.0581 27.3523C84.0581 28.936 85.3426 30.2199 86.9272 30.2199Z" fill="#FFB8B8"/>
<path d="M85.7408 39.8046C85.3631 39.7592 84.9898 39.6983 84.6221 39.6197L84.971 31.7727L85.0208 31.7207L85.7352 30.9668H88.007L88.8455 31.7783L88.9164 31.848L90.7096 33.5651L91.5193 39.1802C90.6803 39.4742 89.8127 39.6791 88.9308 39.7913C88.3835 39.8616 87.8322 39.8968 87.2804 39.8964C87.0024 39.8964 86.7255 39.8876 86.4519 39.8699C86.2126 39.8544 85.9756 39.8334 85.7408 39.8046Z" fill="#CBCBCB"/>
<path d="M81.7735 38.6585C81.5332 38.5456 81.2976 38.4249 81.0669 38.2965C81.0436 36.1709 81.0281 34.7594 81.0281 34.7594L81.2983 34.5945C81.3016 34.5928 81.3049 34.5913 81.3083 34.59L84.3753 32.7279L85.0189 31.6829L85.0222 31.7205L85.2116 33.9236C85.782 35.8697 86.1972 37.858 86.4533 39.8697C86.214 39.8542 85.977 39.8331 85.7422 39.8043C85.3645 39.759 84.9912 39.6981 84.6235 39.6195C84.6113 39.6173 84.598 39.6139 84.5858 39.6117C83.8219 39.4502 83.0746 39.2178 82.3539 38.9176C82.1579 38.8357 81.964 38.7504 81.7735 38.6585Z" fill="#30004E"/>
<path d="M91.5176 39.18C90.6787 39.474 89.811 39.6789 88.9291 39.7911C88.8069 39.0765 88.7619 38.3509 88.7951 37.6267C89.0343 33.804 88.4827 31.6829 88.722 31.6829L88.8438 31.7781L90.3491 32.9671L92.3306 33.6933H92.3318L93.6953 34.1926L93.9356 34.2812V34.3952C93.9367 34.7893 93.9389 36.1687 93.9589 38.0264C93.6864 38.1925 93.4076 38.3486 93.1226 38.4947C92.9498 38.5833 92.7759 38.6674 92.5987 38.7471C92.5544 38.767 92.509 38.7881 92.4636 38.8069C92.1545 38.9442 91.8389 39.0693 91.5176 39.18Z" fill="#30004E"/>
<path d="M84.2123 28.2486C84.2123 28.2486 84.4561 27.8207 84.3994 26.3913C84.3427 24.9619 86.5205 25.7704 88.3402 25.634C90.1599 25.4977 89.7747 28.0204 89.7747 28.0204C89.7747 28.0204 89.906 27.8705 90.1871 26.6529C90.4682 25.4353 89.83 24.222 89.83 24.222C89.642 22.9425 88.6291 23.3526 88.6291 23.3526C89.1169 23.5424 89.0232 23.9483 89.0232 23.9483C88.6103 23.2247 87.5973 23.6347 87.5973 23.6347C86.2463 22.7874 84.8771 23.9032 84.8771 23.9032C83.2451 24.2734 84.2022 25.5707 84.2022 25.5707C82.5609 26.3997 84.2123 28.2486 84.2123 28.2486Z" fill="#30004E"/>
<path d="M79.6729 37.404C79.715 36.4309 79.7338 35.8032 79.7116 35.7157C79.5976 35.2596 81.1549 34.6485 81.2967 34.5943C81.2999 34.5926 81.3032 34.5911 81.3066 34.5898L81.6234 34.7592L81.7718 38.6583C81.5315 38.5454 81.2959 38.4248 81.0652 38.2963C80.5823 38.0293 80.1172 37.7313 79.6729 37.404Z" fill="#30004E"/>
<path d="M93.961 38.0263C93.6886 38.1924 93.4098 38.3485 93.1247 38.4946C92.952 38.5832 92.7781 38.6673 92.6009 38.747C92.5565 38.767 92.5111 38.788 92.4657 38.8068L91.9673 33.8881L92.2586 33.6755C92.2586 33.6755 92.2852 33.6822 92.3328 33.6933H92.3339C92.5676 33.7508 93.2854 33.9412 93.6974 34.1925C93.7894 34.2446 93.8709 34.3133 93.9378 34.3951C93.9785 34.444 93.9987 34.5066 93.9942 34.5701C93.981 34.6985 94.2025 35.9163 94.5304 37.6577C94.3443 37.7861 94.1545 37.909 93.961 38.0263Z" fill="#30004E"/>
<path d="M87.2802 42.8204C88.8974 42.8204 90.2084 41.5101 90.2084 39.8937C90.2084 38.2774 88.8974 36.967 87.2802 36.967C85.663 36.967 84.3521 38.2774 84.3521 39.8937C84.3521 41.5101 85.663 42.8204 87.2802 42.8204Z" fill="#B338FF"/>
<path d="M87.0007 41.129L86.1243 40.0026L86.634 39.6064L87.0489 40.1397L88.4509 38.6606L88.9196 39.1045L87.0007 41.129Z" fill="white"/>
</g>
</g>
<defs>
<clipPath id="clip0_357_2052">
<rect width="141.936" height="155.073" fill="white" transform="translate(16.2917 10.377)"/>
</clipPath>
<clipPath id="clip1_357_2052">
<rect width="97.0556" height="91.8064" fill="white" transform="translate(38.6333 6.54028)"/>
</clipPath>
</defs>
</svg>
